<?xml version="1.0" encoding="UTF-8"?>
<svg width="82.474mm" height="70.711mm" version="1.1" viewBox="0 0 82.474 70.711" xmlns="http://www.w3.org/2000/svg" xmlns:cc="http://creativecommons.org/ns#" xmlns:dc="http://purl.org/dc/elements/1.1/" xmlns:rdf="http://www.w3.org/1999/02/22-rdf-syntax-ns#">
 <metadata>
  <rdf:RDF>
   <cc:Work rdf:about="">
    <dc:format>image/svg+xml</dc:format>
    <dc:type rdf:resource="http://purl.org/dc/dcmitype/StillImage"/>
    <dc:title/>
   </cc:Work>
  </rdf:RDF>
 </metadata>
 <g transform="translate(-61.878 -93.551)">
  <path d="m62.704 98.038h80.897" fill="none" stroke="#000" stroke-linecap="round" stroke-width="1.5"/>
  <path d="m68.327 94.341v64.571l35.452 4.8456 34.905-4.7541v-64.753" fill="#967558" stroke="#000"/>
  <g fill="none" stroke="#000" stroke-linecap="round">
   <path d="m62.628 94.301h80.897" stroke-width="1.5"/>
   <ellipse cx="103.48" cy="123.45" rx="15.167" ry="15.111" opacity=".94" stroke-width="1.2"/>
   <path d="m112.37 126.91a15.167 15.111 0 0 1 6.5071 12.406 15.167 15.111 0 0 1-15.167 15.111 15.167 15.111 0 0 1-15.167-15.111 15.167 15.111 0 0 1 6.5148-12.411" opacity=".94" stroke-width="1.2"/>
   <g>
    <path d="m103.78 148.66v-44.617" stroke-width="1.2"/>
    <path d="m95.05 140.37h17.448" stroke-width=".9"/>
    <path d="m98.224 142.13h11.026" stroke-width=".9"/>
   </g>
  </g>
  <g transform="translate(7.5512 3.135)" stroke-width=".465" style="font-variant-caps:normal;font-variant-east-asian:normal;font-variant-ligatures:normal;font-variant-numeric:normal" aria-label="E  I">
   <path d="m87.367 119.44v-0.34727q1.0177 0 1.0177-0.3135v-5.426q0-0.3135-1.0177-0.3135v-0.34727h5.5852l0.27492 2.262h-0.28456q-0.10611-0.85369-0.29903-1.2395-0.1881-0.38585-0.60772-0.53055-0.41961-0.14469-1.2588-0.14469h-0.96945q-0.17846 0-0.27974 0.0145-0.09646 0.0145-0.15916 0.0868-0.0627 0.0675-0.0627 0.21222v2.4116h0.72829q0.50161 0 0.74759-0.082 0.2508-0.0868 0.34244-0.32315 0.09646-0.24115 0.09646-0.74758h0.28939v2.6527h-0.28939q0-0.5016-0.09646-0.74276-0.09164-0.24116-0.34244-0.32315-0.24598-0.0868-0.74759-0.0868h-0.72829v2.6672q0 0.21222 0.12058 0.26527 0.12058 0.0482 0.38103 0.0482h1.0466q0.68488 0 1.1045-0.10611 0.42444-0.11093 0.65595-0.36173 0.23633-0.25563 0.36174-0.65595 0.13022-0.40514 0.24116-1.119h0.28456l-0.41479 2.59z" style="font-variant-caps:normal;font-variant-east-asian:normal;font-variant-ligatures:normal;font-variant-numeric:normal"/>
   <path d="m100.62 119.44v-0.34727q1.0659 0 1.0659-0.3135v-5.426q0-0.3135-1.0659-0.3135v-0.34727h3.053v0.34727q-1.0659 0-1.0659 0.3135v5.426q0 0.3135 1.0659 0.3135v0.34727z" style="font-variant-caps:normal;font-variant-east-asian:normal;font-variant-ligatures:normal;font-variant-numeric:normal"/>
  </g>
  <g stroke="#000">
   <g>
    <path d="m135.45 159.16v-65.174" fill="none" stroke-width="1.2"/>
    <path d="m71.588 159.04v-64.839" fill="none" stroke-width="1.2"/>
    <path d="m76.181 155.37v-51.836s0.26068-5.1516 3.8734-5.3418c4.5836 0.37776 3.7652 9.4091 0.32187 12.461-3.0719 14.182 4.1606 30.848 2.5382 37.984-2.2231 6.8876-6.7335 6.7331-6.7335 6.7331z" fill="#ad9c8d" stroke-width=".6"/>
    <path d="m76.181 155.37s8.9466-1.8702 5.0979-17.747c0 0-5.0447-19.037-0.90254-26.97" fill="none" stroke-width=".3"/>
   </g>
   <path d="m77.978 109.47c2.89 0.90945 4.5967-8.44 2.5959-8.5751-4.5384-0.28837-2.5959 8.5751-2.5959 8.5751z" fill="#967558" stroke-width=".26458px"/>
   <rect x="75.86" y="103.1" width="2.2415" height="5.7051" fill="#3e607b" stroke-linecap="round" stroke-linejoin="round" stroke-width=".6"/>
  </g>
  <g transform="translate(-.2177 -.18555)" stroke="#000">
   <g>
    <path d="m131.26 155.53v-51.836s-0.26067-5.1516-3.8734-5.3418c-4.5836 0.37776-3.7652 9.4091-0.32187 12.461 3.0719 14.182-4.1606 30.848-2.5382 37.984 2.2231 6.8876 6.7335 6.7331 6.7335 6.7331z" fill="#ad9c8d" stroke-width=".6"/>
    <path d="m131.26 155.53s-8.9466-1.8702-5.0978-17.747c0 0 5.0447-19.037 0.90255-26.97" fill="none" stroke-width=".3"/>
    <path d="m129.46 109.63c-2.89 0.90945-4.5967-8.44-2.5959-8.5751 4.5384-0.28837 2.5959 8.5751 2.5959 8.5751z" fill="#967558" stroke-width=".26458px"/>
   </g>
   <rect transform="scale(-1,1)" x="-131.58" y="103.26" width="2.2415" height="5.7051" fill="#3e607b" stroke-linecap="round" stroke-linejoin="round" stroke-width=".6"/>
  </g>
 </g>
</svg>
