<?xml version="1.0" encoding="UTF-8"?>
<svg width="72.153mm" height="68.641mm" version="1.1" viewBox="0 0 72.153 68.641" xmlns="http://www.w3.org/2000/svg" xmlns:cc="http://creativecommons.org/ns#" xmlns:dc="http://purl.org/dc/elements/1.1/" xmlns:rdf="http://www.w3.org/1999/02/22-rdf-syntax-ns#">
 <metadata>
  <rdf:RDF>
   <cc:Work rdf:about="">
    <dc:format>image/svg+xml</dc:format>
    <dc:type rdf:resource="http://purl.org/dc/dcmitype/StillImage"/>
    <dc:title/>
   </cc:Work>
  </rdf:RDF>
 </metadata>
 <g transform="translate(-59.985 -93.362)">
  <g fill="none" stroke="#000" stroke-width="1.2">
   <path d="m61.601 95.439h69.011"/>
   <path d="m127.49 93.362v68.138"/>
   <path d="m64.455 93.362v68.138"/>
  </g>
  <path d="m60.117 159.71v-38.642l8.1114-14.301 3.4883-13.275h48.704l3.1943 13.275 8.291 14.301 0.0982 38.644-71.888-2e-3" fill="#855555" stroke="#000" stroke-linecap="square" stroke-width=".8"/>
  <path d="m64.451 156.61v-35.05l7.1457-12.972 3.073-12.041h42.906l2.814 12.041 7.304 12.972 0.0865 35.052-63.329-2e-3" fill="none" stroke="#d0b58c" stroke-linecap="square" stroke-width=".8"/>
  <g transform="translate(0 -.49974)" stroke="#d0b58c" stroke-width=".4">
   <rect x="68.904" y="149.47" width="6.0263" height="6.0263" fill="none" stroke-linecap="square"/>
   <rect x="70.165" y="150.76" width="3.4941" height="3.4941" stroke-linecap="square"/>
   <path d="m70.777 149.48v-2.3933h2.2742v2.4097" fill="none"/>
   <rect x="80.957" y="149.47" width="6.0263" height="6.0263" fill="none" stroke-linecap="square"/>
   <rect x="82.217" y="150.76" width="3.4941" height="3.4941" stroke-linecap="square"/>
   <path d="m82.83 149.48v-2.3933h2.2742v2.4097" fill="none"/>
   <rect x="93.009" y="149.47" width="6.0263" height="6.0263" fill="none" stroke-linecap="square"/>
   <rect x="94.27" y="150.76" width="3.4941" height="3.4941" stroke-linecap="square"/>
   <g fill="none">
    <g>
     <path d="m94.882 149.48v-2.3933h2.2742v2.4097"/>
     <path d="m74.993 151.31h5.9057m0 2.2742h-5.9462"/>
     <path d="m87.17 151.31h5.9057m0 2.2742h-5.9462"/>
    </g>
    <rect x="105.01" y="149.47" width="6.0263" height="6.0263" stroke-linecap="square"/>
   </g>
   <rect x="106.27" y="150.76" width="3.4941" height="3.4941" stroke-linecap="square"/>
   <g fill="none">
    <g>
     <path d="m106.88 149.48v-2.3933h2.2742v2.4097"/>
     <path d="m99.172 151.31h5.9057m0 2.2742h-5.9462"/>
     <path d="m64.454 151.35h4.5385m0 2.2742h-4.5696"/>
    </g>
    <rect x="116.82" y="149.47" width="6.0263" height="6.0263" stroke-linecap="square"/>
   </g>
   <rect x="118.08" y="150.76" width="3.4941" height="3.4941" stroke-linecap="square"/>
   <g fill="none">
    <path d="m118.69 149.48v-2.3933h2.2742v2.4097"/>
    <path d="m110.98 151.31h5.9057m0 2.2742h-5.9462"/>
    <path d="m122.91 151.31h4.5385m0 2.2742h-4.5696"/>
   </g>
  </g>
  <g transform="translate(1.4147 -3.0554)" stroke="#d0b58c" stroke-width=".4">
   <g>
    <path d="m92.322 110.52h-11.064v2.6851l2.4017 1.3866h8.6258z"/>
    <path d="m92.456 120.69v-14.511h4.932v14.439" fill="none"/>
    <path d="m92.456 120.69-4.3435 4.3477 13.645 0.019-4.3264-4.3811-2.4417 2.4413z"/>
   </g>
   <g fill="none">
    <path d="m92.451 118.03h-3.8608l-7.9342 7.9316v3.333h3.1945l8.6053-8.6026"/>
    <path d="m88.591 118.03v-3.2407"/>
    <rect x="93.436" y="125.1" width="2.9725" height="5.3535" stroke-linecap="square"/>
    <g>
     <path d="m91.414 124.97v6.2487l3.5723 2.9338 3.4281-2.8154 0.04799-6.4515"/>
     <path d="m98.323 129.09 4.84-2.8148"/>
     <path d="m91.459 129.09-4.7041-2.5488"/>
    </g>
   </g>
   <path d="m97.522 110.45h11.064v2.6851l-2.4017 1.3866h-8.6258z"/>
   <g fill="none">
    <path d="m97.393 117.95h3.8608l7.9342 7.9316v3.333h-3.1944l-8.6053-8.6026"/>
    <path d="m101.25 117.95v-3.2407"/>
    <path d="m93.495 106.21 9.5e-5 15.537"/>
    <path d="m96.358 105.97v15.737"/>
    <path d="m83.66 114.59v8.4614"/>
    <path d="m106.18 114.52v8.4614"/>
    <path d="m108.59 110.45 4.398-2.5392v-4.3232h-13.112l-2.5158 2.5158"/>
    <path d="m81.227 110.52-4.398-2.5392v-4.3232h13.112l2.5158 2.5158"/>
    <path d="m76.829 107.98h15.55"/>
    <path d="m89.94 103.66v4.2757"/>
    <path d="m112.98 107.91h-15.55"/>
    <path d="m99.872 103.59v4.2757"/>
   </g>
  </g>
  <g fill="none" stroke="#d0b58c" stroke-width=".4">
   <path d="m82.071 126.23c-0.56716 0.42021-1.3392 0.24623-1.9403 0.58884-0.47485 0.16888-1.0477 0.29149-1.3067 0.77524-0.34632 0.57126-0.84128 1.0852-0.9482 1.7696-0.10938 0.59281-0.01143 1.2071 0.23431 1.7545 0.14505 0.26247 0.19455 0.58293 0.0633 0.86176-0.18014 0.41252-0.52654 0.71801-0.79326 1.0729-0.42877 0.5235-0.91258 1.0135-1.5032 1.3534-0.68898 0.46792-1.2524 1.1247-2.0362 1.4468-0.30902 0.15885-0.68858 0.33802-0.78885 0.69992"/>
   <path d="m87.009 124.67c-0.03992 1.1208-0.05443 2.2452-0.01403 3.3653 0.06274 0.43555-0.2765 1.4209-0.2765 1.4209-0.13282 0.48472-0.34898 1.0927-0.31693 1.5883-0.05338 0.74468 0.04906 1.0713-0.14282 1.8039-0.15887 0.42734-0.43622 0.81901-0.46832 1.2858-0.20229 0.68725-1.0059 0.91725-1.2784 1.5624-0.25278 0.47755-0.72168 0.79525-1.1971 1.0235"/>
   <path d="m90.453 124.84c-0.09113 0.30177-0.08251 0.62084-0.07141 0.93239 0.0074 0.20097 0.01404 0.40252-0.0027 0.60321-0.0059 0.12557 0.0081 0.25093 0.0046 0.37655-0.0032 0.38276-0.05743 0.76779-0.18768 1.1288-0.07131 0.48426-0.0189 0.97484 0.03661 1.4578 0.05721 0.49641 0.11774 0.99962 0.05016 1.4982-0.0384 0.37126 0.01452 0.51104 0.1238 0.7296 0.36326 0.50495 0.19695 0.88843 0.39323 1.4081 0.20197 0.77102-0.08134 1.2917 0.06297 1.9841 0.04711 0.27853 0.07856 0.56818 0.21438 0.82095 0.09305 0.18354 0.26208 0.31809 0.44871 0.39836 0.19523 0.0974 0.40503 0.18282 0.5581 0.3441 0.10024 0.10394 0.16262 0.2426 0.17609 0.38619"/>
   <path d="m99.829 128.29c-0.13459 0.52806-0.2976 1.0761-0.01789 1.5911-6.06e-4 0.50692 0.0838 1.0001 0.25056 1.4871 0.16979 0.6084 0.33996 1.235 0.18555 1.8576-0.0627 0.55962-0.19725 1.144-0.64816 1.5976-0.2949 0.52563-0.44748 1.0934-0.76309 1.6148-0.44322 0.59274-1.0899 3.0627-1.1432 3.2191"/>
   <path d="m106.51 125.25c-3e-3 1.8206 0.0109 3.6414-0.0198 5.4617 0.0835 0.39211 0.15916 0.78887 0.1705 1.1927 0.0901 0.56946 0.13986 1.145 0.22046 1.7152 0.16918 0.45832 0.28407 0.94015 0.3794 1.4248-0.0407 0.41614 0.0606 0.82151 0.22027 1.1906 0.17461 0.50995 0.48962 0.93843 0.78396 1.3664 0.22761 0.27399 1.0735 1.4561 1.1888 1.8171"/>
   <path d="m110.6 126.16c1.1182 0.49142 2.3804 0.82537 3.2007 1.7955 0.6498 0.55252 1.402 1.1126 1.5984 1.9949 0.34015 0.84755 0.91085 1.585 1.4718 2.2925 0.57076 0.55971 0.64386 1.5069 1.3986 1.899 0.82266 0.33168 0.87406 1.1421 0.90695 1.8859 0.39579 1.0646 1.1226 1.9752 1.8463 2.8338"/>
   <path d="m84.99 142.48c-0.14751-1.0388 0.10193-2.0202 0.86857-2.6039 0.92069-0.67851 2.0988-0.83275 3.1579-1.2018 0.76103-0.25228 1.5534-0.42954 2.239-0.87139 0.8769-0.20146 1.0129-1.1975 1.6511-1.6826 0.56058-0.63133 1.2761-1.1012 2.016-1.4961 1.2718-0.55932 2.4022-1.3816 3.6462-1.9939 0.86859-0.19811 1.0332-1.1362 1.3568-1.8246 1.163 2.6894-0.77913 4.6473-1.7932 6.7679v-3e-5c-0.60554 0.46227-1.2685 0.84925-1.9608 1.1716-0.47952 0.32739-0.79188 0.99612-0.50737 1.5479 0.31839 0.7654 1.1457 1.0787 1.8458 1.3965 0.48356 0.22771 0.90413 0.56805 1.2542 0.96813"/>
  </g>
 </g>
</svg>
