<?xml version="1.0" encoding="UTF-8" standalone="no"?>
<svg
   xmlns:dc="http://purl.org/dc/elements/1.1/"
   xmlns:cc="http://creativecommons.org/ns#"
   xmlns:rdf="http://www.w3.org/1999/02/22-rdf-syntax-ns#"
   xmlns:svg="http://www.w3.org/2000/svg"
   xmlns="http://www.w3.org/2000/svg"
   xmlns:sodipodi="http://sodipodi.sourceforge.net/DTD/sodipodi-0.dtd"
   xmlns:inkscape="http://www.inkscape.org/namespaces/inkscape"
   width="56.374485mm"
   height="50.882957mm"
   viewBox="0 0 56.374485 50.882958"
   version="1.1"
   id="svg8"
   inkscape:version="1.0.1 (3bc2e813f5, 2020-09-07)"
   sodipodi:docname="elodiir-banner.svg">
  <defs
     id="defs2" />
  <sodipodi:namedview
     id="base"
     pagecolor="#ffffff"
     bordercolor="#666666"
     borderopacity="1.0"
     inkscape:pageopacity="0.0"
     inkscape:pageshadow="2"
     inkscape:zoom="1.4"
     inkscape:cx="-56.10848"
     inkscape:cy="141.49644"
     inkscape:document-units="mm"
     inkscape:current-layer="layer2"
     inkscape:document-rotation="0"
     showgrid="false"
     inkscape:window-width="1444"
     inkscape:window-height="839"
     inkscape:window-x="0"
     inkscape:window-y="0"
     inkscape:window-maximized="0" />
  <metadata
     id="metadata5">
    <rdf:RDF>
      <cc:Work
         rdf:about="">
        <dc:format>image/svg+xml</dc:format>
        <dc:type
           rdf:resource="http://purl.org/dc/dcmitype/StillImage" />
        <dc:title></dc:title>
      </cc:Work>
    </rdf:RDF>
  </metadata>
  <g
     inkscape:groupmode="layer"
     id="layer2"
     inkscape:label="main"
     transform="translate(-10.60319,-9.9547573)">
    <circle
       style="fill:#b3b790;fill-opacity:1;stroke:none;stroke-width:0.799999;stroke-linecap:round;stroke-linejoin:round;stroke-miterlimit:4;stroke-dasharray:none;stroke-opacity:1"
       id="path3790-6"
       cx="41.558811"
       cy="35.659889"
       r="24.999847" />
    <circle
       style="fill:#b7a882;fill-opacity:1;stroke:#000000;stroke-width:0.799999;stroke-linecap:round;stroke-linejoin:round;stroke-miterlimit:4;stroke-dasharray:none;stroke-opacity:1"
       id="path3790-7"
       cx="36.003036"
       cy="35.437866"
       r="24.999847" />
    <circle
       style="fill:none;stroke:#000000;stroke-width:0.8;stroke-linecap:round;stroke-linejoin:round;stroke-miterlimit:4;stroke-dasharray:none;stroke-opacity:1"
       id="path3790"
       cx="41.577827"
       cy="35.354603"
       r="24.999846" />
    <path
       id="path3792-9-3"
       style="fill:#000000;fill-opacity:1;stroke:#000000;stroke-width:0.264583px;stroke-linecap:butt;stroke-linejoin:miter;stroke-opacity:1"
       d="m 34.451856,18.037768 c -0.204469,2.328082 0.603278,2.944548 0.603278,2.944548 -0.216864,0.38418 -0.358574,0.792942 -0.358574,0.792942 -0.657147,-0.0859 -1.550118,0.85501 -1.550118,0.85501 -3.377767,-0.587174 -4.746471,0.6891 -4.746471,0.6891 -1.481838,-0.408042 -2.795122,0.215764 -2.795122,0.215764 -0.954553,-0.630336 -6.804599,-0.08756 -6.804599,-0.08756 -2.168928,-1.074266 -4.288824,-0.230601 -4.288824,-0.230601 -0.307609,2.288511 4.315113,1.642842 4.315113,1.642842 5.468062,1.251765 7.054887,0.307657 7.054887,0.307657 4.695769,-0.252721 5.754185,1.048841 5.754185,1.048841 0.02801,1.872317 1.390483,4.649883 1.390483,4.649883 -0.446419,1.281436 -0.101455,2.618349 -0.101455,2.618349 -0.656714,3.35089 -3.048091,7.034279 -3.085822,10.388325 -0.981634,1.301477 -0.973147,2.778299 -0.973147,2.778299 -2.110807,2.015861 -3.895254,8.394732 -3.895254,8.394732 -4.201343,-0.869468 -4.09728,-0.110209 -4.09728,-0.110209 l 4.727763,3.078937 c 0,0 1.019829,-1.180488 0.91245,-2.300282 0,0 3.692598,-4.599297 4.98707,-8.987964 1.855427,-4.312748 3.333681,-5.174996 4.154859,-8.23571 l 1.112197,0.03848 c 0.821179,3.060713 2.299433,3.922964 4.154861,8.235712 1.294471,4.388665 4.987067,8.987964 4.987067,8.987964 -0.107378,1.119791 0.91245,2.300282 0.91245,2.300282 l 4.727763,-3.078937 c 0,0 0.104063,-0.759262 -4.097279,0.110209 0,0 -1.784445,-6.378871 -3.895254,-8.394732 0,0 0.0085,-1.476822 -0.973146,-2.778302 -0.03773,-3.354046 -2.429107,-7.037435 -3.085822,-10.388324 0,0 0.344964,-1.336912 -0.101457,-2.618348 0,0 1.362475,-2.777566 1.390483,-4.649884 0,0 1.058418,-1.301562 5.754185,-1.048841 0,0 1.586826,0.944108 7.054887,-0.307657 0,0 4.622724,0.645669 4.315114,-1.642842 0,0 -2.119895,-0.843665 -4.288825,0.230601 0,0 -5.850046,-0.542776 -6.804596,0.08756 0,0 -1.313286,-0.623806 -2.795125,-0.215764 0,0 -1.368703,-1.276274 -4.746469,-0.6891 0,0 -0.892971,-0.94091 -1.550119,-0.85501 0,0 -0.141708,-0.408762 -0.358574,-0.792942 0,0 0.807746,-0.616466 0.603279,-2.944548 0,0 0.194815,-1.879002 -1.809561,-1.621005 -1.78359,-0.188464 -1.709481,1.582526 -1.709481,1.582526 z"
       sodipodi:nodetypes="cccccccccccccccccccccccccccccccccccccccccccc" />
    <path
       id="path3792-9"
       style="fill:#959595;fill-opacity:1;stroke:#000000;stroke-width:0.264583px;stroke-linecap:butt;stroke-linejoin:miter;stroke-opacity:1"
       d="m 40.026649,17.954505 c -0.204469,2.328082 0.603278,2.944548 0.603278,2.944548 -0.216864,0.38418 -0.358574,0.792942 -0.358574,0.792942 -0.657147,-0.0859 -1.550118,0.85501 -1.550118,0.85501 -3.377767,-0.587174 -4.746471,0.6891 -4.746471,0.6891 -1.481838,-0.408042 -2.795122,0.215764 -2.795122,0.215764 -0.954553,-0.630336 -6.804599,-0.08756 -6.804599,-0.08756 -2.168928,-1.074266 -4.288824,-0.230601 -4.288824,-0.230601 -0.307609,2.288511 4.315113,1.642842 4.315113,1.642842 5.468062,1.251765 7.054887,0.307657 7.054887,0.307657 4.695769,-0.252721 5.754185,1.048841 5.754185,1.048841 0.02801,1.872317 1.390483,4.649883 1.390483,4.649883 -0.446419,1.281436 -0.101455,2.618349 -0.101455,2.618349 -0.656714,3.350889 -3.048091,7.034278 -3.085822,10.388325 -0.981634,1.301477 -0.973147,2.778299 -0.973147,2.778299 -2.110807,2.015861 -3.895254,8.394732 -3.895254,8.394732 -4.201343,-0.869468 -4.09728,-0.110209 -4.09728,-0.110209 l 4.727763,3.078937 c 0,0 1.019829,-1.180488 0.91245,-2.300282 0,0 3.692598,-4.599297 4.98707,-8.987964 1.855427,-4.312748 3.333681,-5.174997 4.154859,-8.23571 l 1.112197,0.03848 c 0.821178,3.060712 2.299432,3.922962 4.154859,8.23571 1.294472,4.388666 4.98707,8.987964 4.98707,8.987964 -0.107379,1.119793 0.91245,2.300282 0.91245,2.300282 l 4.727763,-3.078937 c 0,0 0.104063,-0.75926 -4.09728,0.110209 0,0 -1.784447,-6.378871 -3.895254,-8.394731 0,0 0.0085,-1.476823 -0.973147,-2.778301 -0.03773,-3.354046 -2.429108,-7.037435 -3.085822,-10.388325 0,0 0.344964,-1.336912 -0.101455,-2.618348 0,0 1.362473,-2.777566 1.390483,-4.649884 0,0 1.058416,-1.301562 5.754185,-1.048841 0,0 1.586825,0.944108 7.054887,-0.307657 0,0 4.622722,0.645669 4.315113,-1.642842 0,0 -2.119896,-0.843665 -4.288824,0.230601 0,0 -5.850046,-0.542776 -6.804599,0.08756 0,0 -1.313284,-0.623806 -2.795122,-0.215764 0,0 -1.368704,-1.276274 -4.746471,-0.6891 0,0 -0.892971,-0.94091 -1.550118,-0.85501 0,0 -0.14171,-0.408762 -0.358574,-0.792942 0,0 0.807747,-0.616466 0.603278,-2.944548 0,0 0.194815,-1.879002 -1.80956,-1.621005 -1.78359,-0.188464 -1.709481,1.582526 -1.709481,1.582526 z"
       sodipodi:nodetypes="cccccccccccccccccccccccccccccccccccccccccccc" />
  </g>
</svg>
