<?xml version="1.0" encoding="UTF-8" standalone="no"?>
<svg
   xmlns:dc="http://purl.org/dc/elements/1.1/"
   xmlns:cc="http://creativecommons.org/ns#"
   xmlns:rdf="http://www.w3.org/1999/02/22-rdf-syntax-ns#"
   xmlns:svg="http://www.w3.org/2000/svg"
   xmlns="http://www.w3.org/2000/svg"
   xmlns:sodipodi="http://sodipodi.sourceforge.net/DTD/sodipodi-0.dtd"
   xmlns:inkscape="http://www.inkscape.org/namespaces/inkscape"
   width="52.666607mm"
   height="90.948593mm"
   viewBox="0 0 52.666608 90.948593"
   version="1.1"
   id="svg8"
   inkscape:version="1.0.1 (3bc2e813f5, 2020-09-07)"
   sodipodi:docname="hag-banner.svg">
  <defs
     id="defs2" />
  <sodipodi:namedview
     id="base"
     pagecolor="#ffffff"
     bordercolor="#666666"
     borderopacity="1.0"
     inkscape:pageopacity="0.0"
     inkscape:pageshadow="2"
     inkscape:zoom="0.7"
     inkscape:cx="194.08889"
     inkscape:cy="249.72326"
     inkscape:document-units="mm"
     inkscape:current-layer="layer1"
     inkscape:document-rotation="0"
     showgrid="false"
     inkscape:window-width="1364"
     inkscape:window-height="839"
     inkscape:window-x="0"
     inkscape:window-y="0"
     inkscape:window-maximized="0" />
  <metadata
     id="metadata5">
    <rdf:RDF>
      <cc:Work
         rdf:about="">
        <dc:format>image/svg+xml</dc:format>
        <dc:type
           rdf:resource="http://purl.org/dc/dcmitype/StillImage" />
        <dc:title></dc:title>
      </cc:Work>
    </rdf:RDF>
  </metadata>
  <g
     inkscape:label="Layer 1"
     inkscape:groupmode="layer"
     id="layer1"
     transform="translate(-68.184691,-80.994403)">
    <path
       style="fill:#535f5d;fill-opacity:1;stroke:#000000;stroke-width:0.6;stroke-linecap:butt;stroke-linejoin:miter;stroke-miterlimit:4;stroke-dasharray:none;stroke-opacity:1"
       d="m 89.536082,137.19592 c -3.099571,2.41793 -3.34438,7.67328 -3.34438,7.67328 0,0 1.612036,-2.1283 3.501555,-2.48695 -2.081769,1.71561 -3.496082,6.72573 -3.496082,6.72573 0,0 1.858407,-2.48354 3.447893,-2.80918 -2.330624,2.24505 -3.767899,7.07453 -3.767899,7.07453 0,0 2.10885,-2.77956 3.407008,-3.19533 0,0 -7.825345,7.9064 0.591522,21.35583 13.390581,-3.0942 18.996841,-28.11099 14.858381,-49.841"
       id="path2821"
       sodipodi:nodetypes="ccccccccc" />
    <path
       id="path2816"
       style="fill:#e4edeb;fill-opacity:1;stroke:#000000;stroke-width:0.6;stroke-linecap:square;stroke-linejoin:round;stroke-miterlimit:4;stroke-dasharray:none;stroke-opacity:1"
       d="m 95.445167,105.53212 -9.795052,-2.66777 3.488641,-2.2471 c -1.623051,1.04078 -4.726492,1.38046 -4.726492,1.38046 l 4.063438,-3.096124 c -1.996881,0.789191 -5.157306,0.331732 -5.157306,0.331732 l 4.995327,-1.705873 c -3.001332,-1.034792 -5.017181,-3.262429 -5.017181,-3.262429 l 5.162738,1.106721 c -1.278443,-2.094562 -1.636984,-3.872825 -1.636984,-3.872825 l 2.714079,2.90691 c -1.467095,-2.010902 -0.706064,-4.641934 -0.706064,-4.641934 0,0 0.677241,2.523445 1.942046,3.47108 0,0 0.3802,-10.415631 0.0053,-11.931355 0.790011,-0.118716 1.347808,0.987895 1.347808,0.987895 l -0.258777,10.849924 1.562931,-3.756725 c 0,0 0.927089,1.287169 -0.557361,4.921365 l 2.684381,-5.633174 c 0,0 0.365911,2.841073 -1.784173,7.007192 l 3.670943,-4.454194 c 0,0 0.768685,3.136815 -2.486482,6.522982 l 5.475653,-2.821628 c 0,0 -1.68573,2.266542 -4.480669,4.816797 l 4.784139,-0.02807"
       sodipodi:nodetypes="ccccccccccccccccccccccccc" />
    <path
       id="path2733"
       style="fill:#b7ad8f;fill-opacity:1;stroke:#000000;stroke-width:1.2;stroke-linecap:square;stroke-miterlimit:4;stroke-dasharray:none;stroke-opacity:1"
       d="m 106.80881,98.040066 c -2.63006,-0.006 -5.25383,0.851621 -7.368343,2.416534 -1.756867,1.29049 -3.157289,3.06229 -3.9953,5.07552 0.0742,0.0807 0.223628,0.12488 0.316187,0.20981 1.870428,1.27263 3.494888,2.91063 4.725056,4.81105 1.60752,2.47139 2.57469,5.3544 2.79113,8.29408 0.076,1.10734 0.0442,2.22199 -0.0944,3.32324 -0.0439,0.0957 0.13165,0.0729 0.18574,0.11237 1.5434,0.4635 3.18227,0.57887 4.78162,0.41355 2.55456,-0.26873 5.00978,-1.37006 6.9163,-3.09024 1.97581,-1.76659 3.36099,-4.18322 3.86981,-6.78562 0.52984,-2.65693 0.16416,-5.48664 -1.04915,-7.9113 -1.25432,-2.53786 -3.40846,-4.61621 -5.99069,-5.776878 -1.59218,-0.721907 -3.34124,-1.094371 -5.08797,-1.092116 z" />
    <circle
       style="fill:#b7ad8f;fill-opacity:1;stroke:#000000;stroke-width:1.2;stroke-linecap:square;stroke-miterlimit:4;stroke-dasharray:none;stroke-opacity:1"
       id="path2673"
       cx="86.051178"
       cy="120.1287"
       r="17.266487" />
    <circle
       style="fill:#000000;fill-opacity:1;stroke:none;stroke-width:1.2;stroke-linecap:square;stroke-miterlimit:4;stroke-dasharray:none;stroke-opacity:1"
       id="path2761"
       cx="71.470596"
       cy="110.80139"
       r="1.6796347" />
    <circle
       style="fill:#000000;fill-opacity:1;stroke:none;stroke-width:1.2;stroke-linecap:square;stroke-miterlimit:4;stroke-dasharray:none;stroke-opacity:1"
       id="path2761-2"
       cx="70.807442"
       cy="128.76991"
       r="1.6796347" />
    <circle
       style="fill:#000000;fill-opacity:1;stroke:none;stroke-width:1.2;stroke-linecap:square;stroke-miterlimit:4;stroke-dasharray:none;stroke-opacity:1"
       id="path2761-0"
       cx="85.582489"
       cy="137.31325"
       r="1.6796347" />
    <circle
       style="fill:#000000;fill-opacity:1;stroke:none;stroke-width:1.2;stroke-linecap:square;stroke-miterlimit:4;stroke-dasharray:none;stroke-opacity:1"
       id="path2761-23"
       cx="116.27077"
       cy="102.5135"
       r="1.6796347" />
    <circle
       style="fill:#000000;fill-opacity:1;stroke:none;stroke-width:1.2;stroke-linecap:square;stroke-miterlimit:4;stroke-dasharray:none;stroke-opacity:1"
       id="path2761-7"
       cx="108.31304"
       cy="98.041176"
       r="1.6796347" />
    <circle
       style="fill:#000000;fill-opacity:1;stroke:none;stroke-width:1.2;stroke-linecap:square;stroke-miterlimit:4;stroke-dasharray:none;stroke-opacity:1"
       id="path2761-5"
       cx="119.17166"
       cy="112.06866"
       r="1.6796347" />
    <path
       style="fill:none;stroke:#000000;stroke-width:0.264583px;stroke-linecap:butt;stroke-linejoin:miter;stroke-opacity:1"
       d="M 70.660191,128.82524 116.29948,102.44243"
       id="path2802" />
    <path
       style="fill:none;stroke:#000000;stroke-width:0.264583px;stroke-linecap:butt;stroke-linejoin:miter;stroke-opacity:1"
       d="m 71.307585,110.76486 47.725645,0.96418"
       id="path2804"
       sodipodi:nodetypes="cc" />
    <path
       style="fill:none;stroke:#000000;stroke-width:0.264583px;stroke-linecap:butt;stroke-linejoin:miter;stroke-opacity:1"
       d="M 108.57673,98.223804 85.653637,137.51043"
       id="path2806"
       sodipodi:nodetypes="cc" />
    <path
       style="fill:none;stroke:#000000;stroke-width:0.6;stroke-linecap:butt;stroke-linejoin:miter;stroke-miterlimit:4;stroke-dasharray:none;stroke-opacity:1"
       d="m 89.875699,171.53383 c 0,0 10.923631,-15.73855 8.828407,-32.33227"
       id="path2823" />
    <path
       style="fill:none;stroke:#000000;stroke-width:1.5;stroke-linecap:round;stroke-linejoin:miter;stroke-miterlimit:4;stroke-dasharray:none;stroke-opacity:1"
       d="m 72.976465,124.84012 v -8.83598"
       id="path2825" />
    <path
       style="fill:none;stroke:#000000;stroke-width:1.5;stroke-linecap:round;stroke-linejoin:miter;stroke-miterlimit:4;stroke-dasharray:none;stroke-opacity:1"
       d="m 75.880632,120.18838 v -3.52927"
       id="path2827" />
    <path
       style="fill:none;stroke:#000000;stroke-width:1.5;stroke-linecap:round;stroke-linejoin:miter;stroke-miterlimit:4;stroke-dasharray:none;stroke-opacity:1"
       d="m 78.721019,120.03827 v -3.52926"
       id="path2827-9" />
    <path
       style="fill:none;stroke:#000000;stroke-width:1.5;stroke-linecap:round;stroke-linejoin:miter;stroke-miterlimit:4;stroke-dasharray:none;stroke-opacity:1"
       d="M 84.220408,119.84651 H 98.58107"
       id="path2844" />
    <path
       style="fill:none;stroke:#000000;stroke-width:1.5;stroke-linecap:round;stroke-linejoin:miter;stroke-miterlimit:4;stroke-dasharray:none;stroke-opacity:1"
       d="m 87.741032,124.80837 v -8.83599"
       id="path2825-2" />
    <path
       style="fill:none;stroke:#000000;stroke-width:1.5;stroke-linecap:round;stroke-linejoin:miter;stroke-miterlimit:4;stroke-dasharray:none;stroke-opacity:1"
       d="m 93.244269,121.67153 v -3.52927"
       id="path2827-2" />
    <path
       style="fill:none;stroke:#000000;stroke-width:1.5;stroke-linecap:round;stroke-linejoin:miter;stroke-miterlimit:4;stroke-dasharray:none;stroke-opacity:1"
       d="m 95.385375,115.96958 h 3.792044"
       id="path2827-8" />
  </g>
</svg>
