<?xml version="1.0" encoding="UTF-8" standalone="no"?>
<svg
   xmlns:dc="http://purl.org/dc/elements/1.1/"
   xmlns:cc="http://creativecommons.org/ns#"
   xmlns:rdf="http://www.w3.org/1999/02/22-rdf-syntax-ns#"
   xmlns:svg="http://www.w3.org/2000/svg"
   xmlns="http://www.w3.org/2000/svg"
   xmlns:sodipodi="http://sodipodi.sourceforge.net/DTD/sodipodi-0.dtd"
   xmlns:inkscape="http://www.inkscape.org/namespaces/inkscape"
   width="77.725555mm"
   height="69.279129mm"
   viewBox="0 0 77.725556 69.279129"
   version="1.1"
   id="svg8"
   inkscape:version="1.0.1 (3bc2e813f5, 2020-09-07)"
   sodipodi:docname="naga-banner.svg">
  <defs
     id="defs2" />
  <sodipodi:namedview
     id="base"
     pagecolor="#ffffff"
     bordercolor="#666666"
     borderopacity="1.0"
     inkscape:pageopacity="0.0"
     inkscape:pageshadow="2"
     inkscape:zoom="1.979899"
     inkscape:cx="175.50297"
     inkscape:cy="131.50436"
     inkscape:document-units="mm"
     inkscape:current-layer="layer1"
     inkscape:document-rotation="0"
     showgrid="false"
     inkscape:window-width="1600"
     inkscape:window-height="839"
     inkscape:window-x="0"
     inkscape:window-y="0"
     inkscape:window-maximized="1" />
  <metadata
     id="metadata5">
    <rdf:RDF>
      <cc:Work
         rdf:about="">
        <dc:format>image/svg+xml</dc:format>
        <dc:type
           rdf:resource="http://purl.org/dc/dcmitype/StillImage" />
        <dc:title></dc:title>
      </cc:Work>
    </rdf:RDF>
  </metadata>
  <g
     inkscape:label="Layer 1"
     inkscape:groupmode="layer"
     id="layer1"
     transform="translate(-57.25491,-88.048398)">
    <path
       style="fill:#c49cdd;stroke:#000000;stroke-width:0.600001;stroke-linecap:butt;stroke-linejoin:miter;stroke-miterlimit:4;stroke-dasharray:none;stroke-opacity:1;fill-opacity:1"
       d="m 65.78514,107.18743 c 0,0 -4.1039,0.40931 -8.26272,-2.68696 4.21082,8.29545 10.78229,9.09258 10.78229,9.09258"
       id="path2428-0-6-6"
       sodipodi:nodetypes="ccc" />
    <rect
       style="fill:#c49cdd;stroke:#000000;stroke-width:0.6;stroke-linecap:round;stroke-miterlimit:4;stroke-dasharray:none;stroke-opacity:1;fill-opacity:1"
       id="rect2358"
       width="55.559196"
       height="2.3646545"
       x="68.30471"
       y="113.59305" />
    <rect
       style="fill:#f2f7a6;stroke:#000000;stroke-width:0.6;stroke-linecap:round;stroke-miterlimit:4;stroke-dasharray:none;stroke-opacity:1;fill-opacity:1"
       id="rect2358-0"
       width="55.559196"
       height="33.707237"
       x="68.304718"
       y="115.9577" />
    <path
       id="path2390"
       style="fill:#f89035;stroke:#000000;stroke-width:0.6;stroke-linecap:round;stroke-miterlimit:4;stroke-dasharray:none;stroke-opacity:1;fill-opacity:1"
       d="m 90.992005,149.70076 c 0.02164,2.79703 2.295182,5.05309 5.092305,5.05314 2.797123,-5e-5 5.07066,-2.25611 5.0923,-5.05314"
       sodipodi:nodetypes="ccc" />
    <path
       id="path2390-3"
       style="fill:#f89035;stroke:#000000;stroke-width:0.6;stroke-linecap:round;stroke-miterlimit:4;stroke-dasharray:none;stroke-opacity:1;fill-opacity:1"
       d="m 101.17661,149.70076 c 0.0142,1.80252 1.5078,3.25641 3.34534,3.25642 1.83755,-1e-5 3.33111,-1.4539 3.34533,-3.25642"
       sodipodi:nodetypes="ccc" />
    <path
       id="path2390-3-6"
       style="fill:#f89035;stroke:#000000;stroke-width:0.6;stroke-linecap:round;stroke-miterlimit:4;stroke-dasharray:none;stroke-opacity:1;fill-opacity:1"
       d="m 84.301335,149.70076 c 0.01415,1.80252 1.5078,3.25641 3.345342,3.25642 1.83754,-1e-5 3.331113,-1.4539 3.345328,-3.25642"
       sodipodi:nodetypes="ccc" />
    <path
       style="fill:#c49cdd;stroke:#000000;stroke-width:0.6;stroke-linecap:butt;stroke-linejoin:miter;stroke-miterlimit:4;stroke-dasharray:none;stroke-opacity:1;fill-opacity:1"
       d="m 68.304712,149.66494 c 0,0 0.288288,4.36903 -7.950039,7.36288 20.879171,-0.92416 23.946662,-7.32706 23.946662,-7.32706"
       id="path2428"
       sodipodi:nodetypes="ccc" />
    <path
       style="fill:#c49cdd;stroke:#000000;stroke-width:0.6;stroke-linecap:butt;stroke-linejoin:miter;stroke-miterlimit:4;stroke-dasharray:none;stroke-opacity:1;fill-opacity:1"
       d="m 123.86391,149.66494 c 0,0 -0.28829,4.36903 7.95004,7.36287 -20.87917,-0.92416 -23.94667,-7.32705 -23.94667,-7.32705"
       id="path2428-0"
       sodipodi:nodetypes="ccc" />
    <path
       style="fill:#c49cdd;stroke:#000000;stroke-width:0.6;stroke-linecap:butt;stroke-linejoin:miter;stroke-miterlimit:4;stroke-dasharray:none;stroke-opacity:1;fill-opacity:1"
       d="m 126.45024,107.18743 c 0,0 4.1039,0.40931 8.26272,-2.68696 -4.21082,8.29545 -10.78229,9.09258 -10.78229,9.09258"
       id="path2428-0-6"
       sodipodi:nodetypes="ccc" />
    <path
       style="fill:#f89035;fill-opacity:1;stroke:#000000;stroke-width:0.6;stroke-linecap:butt;stroke-linejoin:miter;stroke-miterlimit:4;stroke-dasharray:none;stroke-opacity:1"
       d="m 68.30471,113.59305 c 0,0 -15.049907,-9.75664 12.53252,-18.700981 -2.878856,7.872071 1.732831,10.112711 1.732831,10.112711 0,0 -7.600148,-14.989369 29.344859,-16.629348 -9.34587,13.081178 0.29768,15.571588 0.29768,15.571588 0,0 -4.94559,-7.022584 10.91142,-9.490959 -3.18851,7.059479 11.71484,8.914609 0.73989,19.136989 z"
       id="path2493"
       sodipodi:nodetypes="cccccccc" />
    <path
       style="fill:#f8381f;fill-opacity:1;stroke:#000000;stroke-width:0.264583px;stroke-linecap:butt;stroke-linejoin:miter;stroke-opacity:1"
       d="m 71.866165,113.50864 c -5.049355,-2.4651 -9.560481,-9.91346 6.018931,-15.825415 -1.898714,11.175915 8.278596,6.210675 4.859751,15.780035 z"
       id="path2495"
       sodipodi:nodetypes="cccc" />
    <path
       style="fill:#f8381f;fill-opacity:1;stroke:#000000;stroke-width:0.264583px;stroke-linecap:butt;stroke-linejoin:miter;stroke-opacity:1"
       d="m 85.756237,113.50655 c 0,0 2.085334,-2.86469 -0.59979,-8.58792 -2.343685,-9.021008 8.516413,-13.749111 22.576633,-14.58493 -11.161891,17.64395 12.21736,11.51613 -0.28392,23.14016 z"
       id="path2497"
       sodipodi:nodetypes="ccccc" />
    <path
       style="fill:#f8381f;fill-opacity:1;stroke:#000000;stroke-width:0.264583px;stroke-linecap:butt;stroke-linejoin:miter;stroke-opacity:1"
       d="m 121.20375,113.4934 c 8.4917,-9.66947 -3.16005,-12.75301 -0.83412,-17.253563 -14.04703,5.516353 2.0277,8.196333 -9.92161,17.212733 z"
       id="path2499"
       sodipodi:nodetypes="cccc" />
    <path
       style="fill:#f4cd3b;fill-opacity:1;stroke:#000000;stroke-width:0.265;stroke-linecap:round;stroke-linejoin:miter;stroke-miterlimit:4;stroke-dasharray:none;stroke-opacity:1"
       d="m 98.725565,141.10153 5.193745,-8.95734 c 0,0 1.46682,-2.51606 5.62047,-1.506 l -4.46385,7.92398 c 0,0 -1.76954,2.87379 -6.350365,2.53936 z"
       id="path2518"
       sodipodi:nodetypes="ccccc" />
    <path
       style="fill:#f4cd3b;fill-opacity:1;stroke:#000000;stroke-width:0.264999;stroke-linecap:round;stroke-linejoin:miter;stroke-miterlimit:4;stroke-dasharray:none;stroke-opacity:1"
       d="m 105.07593,138.56217 4.56161,-8.09484 c 0,0 1.46681,-2.51606 5.62046,-1.506 l -4.60098,8.16304 c 0,0 -1.00028,1.77223 -5.58109,1.4378 z"
       id="path2518-8"
       sodipodi:nodetypes="ccccc" />
    <path
       style="fill:#f4cd3b;fill-opacity:1;stroke:#000000;stroke-width:0.264999;stroke-linecap:round;stroke-linejoin:miter;stroke-miterlimit:4;stroke-dasharray:none;stroke-opacity:1"
       d="m 92.636388,143.37565 5.299254,-9.10554 c 0,0 1.466824,-2.51606 5.620478,-1.506 l -4.830555,8.33742 c 0,0 -1.50836,2.60855 -6.089177,2.27412 z"
       id="path2518-7"
       sodipodi:nodetypes="ccccc" />
    <path
       style="fill:#f4cd3b;fill-opacity:1;stroke:#000000;stroke-width:0.264999;stroke-linecap:round;stroke-linejoin:miter;stroke-miterlimit:4;stroke-dasharray:none;stroke-opacity:1"
       d="m 86.446099,145.78459 5.446769,-9.39561 c 0,0 1.46682,-2.51606 5.62047,-1.506 l -4.87695,8.49267 c 0,0 -1.609473,2.74337 -6.190289,2.40894 z"
       id="path2518-9"
       sodipodi:nodetypes="ccccc" />
    <path
       style="fill:#f48e49;fill-opacity:1;stroke:#000000;stroke-width:0.264583px;stroke-linecap:butt;stroke-linejoin:miter;stroke-opacity:1"
       d="m 78.640152,125.94592 c 5.511651,1.79408 1.604761,12.88188 1.604761,12.88188 0,0 10.414536,-16.4384 -1.604761,-12.88188 z"
       id="path2604"
       sodipodi:nodetypes="ccc" />
    <path
       id="path2518-9-2"
       style="fill:#f4cd3b;fill-opacity:1;stroke:#000000;stroke-width:0.264999;stroke-linecap:round;stroke-linejoin:miter;stroke-miterlimit:4;stroke-dasharray:none;stroke-opacity:1"
       d="m 87.900443,127.66811 c -4.756441,-5.46547 -11.90278,-2.61688 -12.946304,-2.2675 -7.221801,2.07524 -5.396982,14.63622 -1.96313,15.05139 3.444371,0.48536 5.225542,-4.35014 4.320815,-11.35637 -0.08333,-1.06139 2.440655,-2.06087 5.185948,-0.78158 3.068696,1.77899 -3.115055,11.75174 -3.115055,11.75174 0,0 -2.297888,5.50376 1.766637,6.97363 3.759368,1.28818 5.296745,-1.25483 5.296745,-1.25483 l 5.359115,-9.31031 c -0.649007,-0.15783 -1.235927,-0.17751 -1.754931,-0.23823 -4.004342,-0.46847 -3.448529,1.62975 -6.087009,5.3777 2.547159,-4.42795 6.117206,-9.7513 3.937169,-13.94564 z"
       sodipodi:nodetypes="cccccccccscc" />
    <path
       style="fill:#f4cd3b;fill-opacity:1;stroke:#000000;stroke-width:0.264999;stroke-linecap:round;stroke-linejoin:miter;stroke-miterlimit:4;stroke-dasharray:none;stroke-opacity:1"
       d="m 111.36909,135.94579 3.88891,-6.98446 c 0,0 4.21894,-3.51716 6.32702,-4.19188 -0.87412,4.54452 -5.0632,8.29666 -5.0632,8.29666 0,0 -2.36401,2.44194 -5.15273,2.87968 z"
       id="path2518-8-0"
       sodipodi:nodetypes="ccccc" />
    <path
       style="fill:none;stroke:#000000;stroke-width:0.6;stroke-linecap:butt;stroke-linejoin:miter;stroke-miterlimit:4;stroke-dasharray:none;stroke-opacity:1"
       d="m 72.455291,135.34786 c 0,0 -0.351264,-1.07628 -0.313297,-2.3639"
       id="path2608"
       sodipodi:nodetypes="cc" />
  </g>
</svg>
