<?xml version="1.0" encoding="UTF-8" standalone="no"?>
<svg
   xmlns:dc="http://purl.org/dc/elements/1.1/"
   xmlns:cc="http://creativecommons.org/ns#"
   xmlns:rdf="http://www.w3.org/1999/02/22-rdf-syntax-ns#"
   xmlns:svg="http://www.w3.org/2000/svg"
   xmlns="http://www.w3.org/2000/svg"
   xmlns:sodipodi="http://sodipodi.sourceforge.net/DTD/sodipodi-0.dtd"
   xmlns:inkscape="http://www.inkscape.org/namespaces/inkscape"
   width="61.513004mm"
   height="61.510029mm"
   viewBox="0 0 61.513005 61.510029"
   version="1.1"
   id="svg8"
   inkscape:version="1.0.1 (3bc2e813f5, 2020-09-07)"
   sodipodi:docname="nelomica-banner.svg">
  <defs
     id="defs2" />
  <sodipodi:namedview
     id="base"
     pagecolor="#ffffff"
     bordercolor="#666666"
     borderopacity="1.0"
     inkscape:pageopacity="0.0"
     inkscape:pageshadow="2"
     inkscape:zoom="1.979899"
     inkscape:cx="3.3859662"
     inkscape:cy="141.89915"
     inkscape:document-units="mm"
     inkscape:current-layer="layer1"
     inkscape:document-rotation="0"
     showgrid="false"
     inkscape:window-width="1600"
     inkscape:window-height="839"
     inkscape:window-x="0"
     inkscape:window-y="0"
     inkscape:window-maximized="1" />
  <metadata
     id="metadata5">
    <rdf:RDF>
      <cc:Work
         rdf:about="">
        <dc:format>image/svg+xml</dc:format>
        <dc:type
           rdf:resource="http://purl.org/dc/dcmitype/StillImage" />
        <dc:title></dc:title>
      </cc:Work>
    </rdf:RDF>
  </metadata>
  <g
     inkscape:label="Layer 1"
     inkscape:groupmode="layer"
     id="layer1"
     transform="translate(-65.581419,-95.104758)">
    <circle
       style="fill:#1d941f;fill-opacity:1;stroke:#000000;stroke-width:1.2"
       id="path1462"
       cx="96.334694"
       cy="125.85803"
       r="30.153275" />
    <path
       id="path1487"
       style="fill:#75dab9;fill-opacity:1;stroke:none;stroke-width:0.2;stroke-miterlimit:4;stroke-dasharray:none"
       d="M 96.072201,95.742868 A 30.153274,30.153274 0 0 0 76.906962,102.6179 l 16.44034,16.44086 6.606315,-6.60632 16.523543,16.52354 -17.379822,17.38034 -14.275612,-14.2751 -12.452988,12.45299 a 30.153274,30.153274 0 0 0 23.703463,11.51557 30.153274,30.153274 0 0 0 30.153199,-30.1532 30.153274,30.153274 0 0 0 -0.0258,-1.24798 L 97.320187,95.769223 a 30.153274,30.153274 0 0 0 -1.247986,-0.02635 z" />
    <circle
       style="fill:none;fill-opacity:1;stroke:#000000;stroke-width:1.2"
       id="path1462-6"
       cx="96.341148"
       cy="125.86151"
       r="30.153275" />
    <path
       style="fill:#ffffff;fill-opacity:1;stroke:#000000;stroke-width:0.8;stroke-linecap:round;stroke-linejoin:miter;stroke-miterlimit:4;stroke-dasharray:none;stroke-opacity:1"
       d="m 83.169907,124.77803 c -0.436387,0.0975 -4.215363,-0.0245 -4.215363,-0.0245 -1.553248,-0.032 -1.82001,-10.77768 2.858807,-10.41082 h 13.114305 c 2.712564,-2.95433 10.072284,-2.60792 11.553324,-0.95952 3.85531,-2.87364 7.88131,-1.97297 8.61911,-1.04274 0.80154,0.99218 -0.3163,5.83755 -5.41099,6.94552 -0.47193,10.19028 3.97085,11.7916 3.87268,13.45366 -0.34998,4.84067 -14.386056,10.22342 -18.886599,7.33491 -1.183284,-0.52004 -0.797682,-8.63611 -0.797682,-8.63611 0.05638,-2.44259 -2.293457,-3.28854 -2.293457,-3.28854 l -8.793082,-0.0682 c -2.714956,-0.0689 -2.214162,-3.29892 -2.214162,-3.29892"
       id="path1523"
       sodipodi:nodetypes="ccccccccccccc" />
    <g
       id="use1556"
       style="stroke:none;stroke-width:1;stroke-miterlimit:4;stroke-dasharray:none;stroke-opacity:1"
       transform="translate(-0.49292165,-1.3545022)">
      <path
         style="fill:#ffffff;fill-opacity:1;stroke:#000000;stroke-width:0.264583px;stroke-linecap:butt;stroke-linejoin:miter;stroke-opacity:1"
         d="m 97.540138,101.89751 c -1.540468,-0.0403 -3.334542,5.53249 -2.972647,6.58071 0.799339,1.76786 5.044956,1.71776 5.785889,0 0.48404,-1.69605 -1.747952,-6.62295 -2.813242,-6.58071 z"
         id="path1753"
         sodipodi:nodetypes="cccc" />
    </g>
    <g
       id="use1556-7"
       transform="rotate(18.118389,101.60559,131.46892)">
      <path
         style="fill:#ffffff;fill-opacity:1;stroke:#000000;stroke-width:0.264583px;stroke-linecap:butt;stroke-linejoin:miter;stroke-opacity:1"
         d="m 97.540138,101.89751 c -1.540468,-0.0403 -3.334542,5.53249 -2.972647,6.58071 0.799339,1.76786 5.044956,1.71776 5.785889,0 0.48404,-1.69605 -1.747952,-6.62295 -2.813242,-6.58071 z"
         id="path1774"
         sodipodi:nodetypes="cccc" />
    </g>
    <g
       id="use1556-7-5"
       transform="matrix(-0.95041597,0.31098148,0.31098148,0.95041597,148.05886,-25.063609)">
      <path
         style="fill:#ffffff;fill-opacity:1;stroke:#000000;stroke-width:0.264583px;stroke-linecap:butt;stroke-linejoin:miter;stroke-opacity:1"
         d="m 97.540138,101.89751 c -1.540468,-0.0403 -3.334542,5.53249 -2.972647,6.58071 0.799339,1.76786 5.044956,1.71776 5.785889,0 0.48404,-1.69605 -1.747952,-6.62295 -2.813242,-6.58071 z"
         id="path1778"
         sodipodi:nodetypes="cccc" />
    </g>
    <circle
       style="fill:#000000;fill-opacity:1;stroke:none;stroke-width:0.800001;stroke-linecap:round;stroke-miterlimit:4;stroke-dasharray:none"
       id="path1590"
       cx="97.040314"
       cy="106.08318"
       r="1.222198" />
    <g
       id="use1556-7-3"
       transform="matrix(0.95041597,-0.31098148,-0.31098148,-0.95041597,33.686943,277.92577)"
       style="stroke:none">
      <path
         style="fill:#ffffff;fill-opacity:1;stroke:#000000;stroke-width:0.264583px;stroke-linecap:butt;stroke-linejoin:miter;stroke-opacity:1"
         d="m 97.540138,101.89751 c -1.540468,-0.0403 -3.334542,5.53249 -2.972647,6.58071 0.799339,1.76786 5.044956,1.71776 5.785889,0 0.48404,-1.69605 -1.747952,-6.62295 -2.813242,-6.58071 z"
         id="path1782"
         sodipodi:nodetypes="cccc" />
    </g>
    <g
       id="use1556-7-3-5"
       transform="rotate(-161.88161,102.54954,126.07049)"
       style="fill:#75dab9;fill-opacity:1;stroke-width:0.8;stroke-miterlimit:4;stroke-dasharray:none">
      <path
         style="fill:#ffffff;fill-opacity:1;stroke:#000000;stroke-width:0.264583px;stroke-linecap:butt;stroke-linejoin:miter;stroke-opacity:1"
         d="m 97.540138,101.89751 c -1.540468,-0.0403 -3.334542,5.53249 -2.972647,6.58071 0.799339,1.76786 5.044956,1.71776 5.785889,0 0.48404,-1.69605 -1.747952,-6.62295 -2.813242,-6.58071 z"
         id="path1786"
         sodipodi:nodetypes="cccc" />
    </g>
    <circle
       style="fill:#ffffff;fill-opacity:1;stroke:#000000;stroke-width:0.6;stroke-linecap:round;stroke-miterlimit:4;stroke-dasharray:none;stroke-opacity:1"
       id="path1622"
       cx="87.752312"
       cy="141.73766"
       r="1.4632962" />
    <circle
       style="fill:#ffffff;fill-opacity:1;stroke:#000000;stroke-width:0.600001;stroke-linecap:round;stroke-miterlimit:4;stroke-dasharray:none;stroke-opacity:1"
       id="path1622-6"
       cx="106.92875"
       cy="141.74887"
       r="1.4632962" />
    <path
       style="fill:#000000;fill-opacity:1;stroke:none;stroke-width:0.265;stroke-linecap:round;stroke-linejoin:miter;stroke-miterlimit:4;stroke-dasharray:none;stroke-opacity:1"
       d="m 78.695554,117.76339 c 0.741011,0.31174 4.474874,-2.35026 4.221149,-3.3006 -0.259227,-0.92844 -2.527863,-1.06823 -3.864602,-0.10558 -1.010571,0.52466 -1.007578,3.08333 -0.356547,3.40618 z"
       id="path1654"
       sodipodi:nodetypes="cccc" />
    <path
       style="fill:#000000;fill-opacity:1;stroke:#000000;stroke-width:0.264583px;stroke-linecap:round;stroke-linejoin:miter;stroke-opacity:1"
       d="m 113.62987,112.91935 c -3.04843,-1.43276 -9.125,1.74603 -7.24331,4.5586 0,0 2.53796,-2.25093 3.28698,-1.58863 l -1.97416,2.48711 c 3.35282,0.63695 7.63328,-4.25117 5.93049,-5.45708 z"
       id="path1656"
       sodipodi:nodetypes="ccccc" />
    <path
       style="fill:none;stroke:#000000;stroke-width:0.8;stroke-linecap:butt;stroke-linejoin:miter;stroke-miterlimit:4;stroke-dasharray:none;stroke-opacity:1"
       d="m 104.31336,114.9291 c -3.43576,-0.25977 -8.019032,0.15789 -8.019032,0.15789 2.490401,-2.28712 8.707502,-1.17043 8.707502,-1.17043 0.5417,0.37373 -0.68847,1.01254 -0.68847,1.01254 z"
       id="path1658"
       sodipodi:nodetypes="cccc" />
    <path
       style="fill:#75dab9;fill-opacity:1;stroke:#000000;stroke-width:0.8;stroke-linecap:round;stroke-linejoin:miter;stroke-miterlimit:4;stroke-dasharray:none;stroke-opacity:1"
       d="m 79.80011,118.56585 c -0.682174,1.10508 -0.572328,4.11531 -0.0084,4.85151 0.272164,0.25933 3.253554,0.14496 3.671332,-0.0531 0.24353,-0.28711 0.157352,-7.59098 0.157352,-7.59098 -0.38235,-0.33615 -0.386621,1.222 -3.820284,2.79256 z"
       id="path1660"
       sodipodi:nodetypes="ccccc" />
    <path
       style="fill:#75dab9;fill-opacity:1;stroke:#000000;stroke-width:0.8;stroke-linecap:round;stroke-linejoin:miter;stroke-miterlimit:4;stroke-dasharray:none;stroke-opacity:1"
       d="m 84.799087,124.89951 c 0.352102,-0.25703 9.67616,-0.13331 10.138278,0.12423 0.575868,0.25126 -0.408213,1.86679 -0.714228,1.84406 -16.66349,0.26221 -11.242292,0.12924 -9.42405,-1.96829 z"
       id="path1671"
       sodipodi:nodetypes="cccc" />
    <path
       style="fill:#75dab9;fill-opacity:1;stroke:#000000;stroke-width:0.8;stroke-linecap:butt;stroke-linejoin:miter;stroke-miterlimit:4;stroke-dasharray:none;stroke-opacity:1"
       d="m 88.307132,115.83595 c 0.201978,0.29713 0.150052,7.09708 0.01391,7.31546 -0.120875,0.19111 -2.840734,0.26025 -3.090165,0.0488 -0.2046,-0.20028 -0.291141,-5.89707 0.120324,-7.10396 0.0719,-0.65123 2.442914,-0.66421 2.955934,-0.26037 z"
       id="path1673"
       sodipodi:nodetypes="cccccc" />
    <path
       style="fill:#75dab9;fill-opacity:1;stroke:#000000;stroke-width:0.8;stroke-linecap:butt;stroke-linejoin:miter;stroke-miterlimit:4;stroke-dasharray:none;stroke-opacity:1"
       d="m 96.722123,124.91885 c 0.238228,1.1724 -1.060397,3.21027 -2.012953,3.3259 1.615206,1.07713 1.15551,3.74278 1.15551,3.74278 0,0 -0.65933,5.66171 -0.106296,6.76147 1.334907,1.38805 8.210576,0.0669 8.349106,-0.40709 0.73194,-1.3099 -2.00448,-7.70838 -2.00448,-7.70838 0,0 5.03141,1.66848 5.78546,5.95939 0.58972,-3.68828 -2.43177,-6.97346 -2.43177,-6.97346 0,0 3.0107,0.012 5.44845,4.97023 1.96682,-1.53444 -0.48291,-4.15029 -0.48291,-4.15029 -1.16529,-1.43494 -2.04871,-3.77708 -2.13341,-5.53575 z"
       id="path1675"
       sodipodi:nodetypes="cccccccccccc" />
    <path
       style="fill:#75dab9;fill-opacity:1;stroke:#000000;stroke-width:0.8;stroke-linecap:butt;stroke-linejoin:miter;stroke-miterlimit:4;stroke-dasharray:none;stroke-opacity:1"
       d="m 89.997023,115.9745 c 0.288413,-0.47923 3.454494,-0.23514 3.65575,0 0.967186,1.68137 -1.832379,1.56712 -1.823741,7.11579 -0.254808,0.42146 -1.619695,0.32998 -1.887187,0.11918 -0.289378,-1.41484 -0.123732,-6.46967 0.05518,-7.23497 z"
       id="path1673-9"
       sodipodi:nodetypes="cccccc" />
    <path
       style="fill:#000000;fill-opacity:1;stroke:none;stroke-width:0.264999;stroke-linecap:round;stroke-linejoin:miter;stroke-miterlimit:4;stroke-dasharray:none;stroke-opacity:1"
       d="m 95.372888,116.61079 c 0,0 1.90272,0.001 1.979374,-0.65353 0.264328,-0.18148 7.264028,-0.18396 7.610948,-0.002 0.43232,0.1774 -0.30644,1.40786 -0.53617,1.39181 -0.22973,-0.016 -8.492659,0 -8.492659,0 -0.323594,-0.0323 -0.871209,-0.46179 -0.561493,-0.7366 z"
       id="path1671-1"
       sodipodi:nodetypes="ccccccc" />
    <path
       style="fill:#75dab9;fill-opacity:1;stroke:#000000;stroke-width:0.8;stroke-linecap:butt;stroke-linejoin:miter;stroke-miterlimit:4;stroke-dasharray:none;stroke-opacity:1"
       d="m 93.407111,123.34574 c 0.166677,0.0819 14.102299,0.21965 14.839349,0 -0.41446,-1.05097 -0.25484,-2.93335 -0.2425,-3.50694 0,0 -2.07118,0.12727 -2.65801,-1.18675 l -10.73271,0.0258 c -1.453079,1.33638 -1.346328,4.58449 -1.206129,4.66789 z"
       id="path1707"
       sodipodi:nodetypes="cccccc" />
    <circle
       style="fill:#75dab9;fill-opacity:1;stroke:#000000;stroke-width:0.600001;stroke-linecap:round;stroke-miterlimit:4;stroke-dasharray:none;stroke-opacity:1"
       id="path1622-6-2"
       cx="105.20805"
       cy="107.188"
       r="1.4632962" />
    <circle
       style="fill:#75dab9;fill-opacity:1;stroke:#000000;stroke-width:0.600001;stroke-linecap:round;stroke-miterlimit:4;stroke-dasharray:none;stroke-opacity:1"
       id="path1622-6-2-7"
       cx="88.753311"
       cy="107.33678"
       r="1.4632962" />
  </g>
</svg>
