<?xml version="1.0" encoding="UTF-8" standalone="no"?>
<svg
   xmlns:dc="http://purl.org/dc/elements/1.1/"
   xmlns:cc="http://creativecommons.org/ns#"
   xmlns:rdf="http://www.w3.org/1999/02/22-rdf-syntax-ns#"
   xmlns:svg="http://www.w3.org/2000/svg"
   xmlns="http://www.w3.org/2000/svg"
   xmlns:sodipodi="http://sodipodi.sourceforge.net/DTD/sodipodi-0.dtd"
   xmlns:inkscape="http://www.inkscape.org/namespaces/inkscape"
   width="63.359936mm"
   height="66.270767mm"
   viewBox="0 0 63.359936 66.270768"
   version="1.1"
   id="svg8"
   inkscape:version="1.0.1 (3bc2e813f5, 2020-09-07)"
   sodipodi:docname="orkkish-banner.svg">
  <defs
     id="defs2" />
  <sodipodi:namedview
     id="base"
     pagecolor="#ffffff"
     bordercolor="#666666"
     borderopacity="1.0"
     inkscape:pageopacity="0.0"
     inkscape:pageshadow="2"
     inkscape:zoom="1.4"
     inkscape:cx="-47.088508"
     inkscape:cy="145.39378"
     inkscape:document-units="mm"
     inkscape:current-layer="layer1"
     inkscape:document-rotation="0"
     showgrid="false"
     inkscape:window-width="1600"
     inkscape:window-height="839"
     inkscape:window-x="0"
     inkscape:window-y="0"
     inkscape:window-maximized="1" />
  <metadata
     id="metadata5">
    <rdf:RDF>
      <cc:Work
         rdf:about="">
        <dc:format>image/svg+xml</dc:format>
        <dc:type
           rdf:resource="http://purl.org/dc/dcmitype/StillImage" />
        <dc:title></dc:title>
      </cc:Work>
    </rdf:RDF>
  </metadata>
  <g
     inkscape:label="Layer 1"
     inkscape:groupmode="layer"
     id="layer1"
     transform="translate(-61.490201,-93.24564)">
    <path
       style="fill:none;stroke:#000000;stroke-width:1.5;stroke-linecap:round;stroke-linejoin:miter;stroke-miterlimit:4;stroke-dasharray:none;stroke-opacity:1"
       d="m 92.902851,93.99564 v 63.92787"
       id="path833-1-2"
       sodipodi:nodetypes="cc" />
    <path
       style="fill:none;stroke:#000000;stroke-width:1.5;stroke-linecap:round;stroke-linejoin:miter;stroke-miterlimit:4;stroke-dasharray:none;stroke-opacity:1"
       d="M 123.98978,94.677075 62.240201,111.22282"
       id="path833-1-2-9"
       sodipodi:nodetypes="cc" />
    <path
       style="fill:none;stroke:#000000;stroke-width:1.5;stroke-linecap:round;stroke-linejoin:miter;stroke-miterlimit:4;stroke-dasharray:none;stroke-opacity:1"
       d="m 64.572226,109.98199 1.211807,3.48413"
       id="path6124" />
    <path
       style="fill:none;stroke:#000000;stroke-width:1.5;stroke-linecap:round;stroke-linejoin:miter;stroke-miterlimit:4;stroke-dasharray:none;stroke-opacity:1"
       d="m 120.73752,95.090417 1.2118,3.48413"
       id="path6124-3" />
    <path
       style="fill:#ca160c;fill-opacity:1;stroke:#000000;stroke-width:0.5;stroke-linecap:butt;stroke-linejoin:miter;stroke-miterlimit:4;stroke-dasharray:none;stroke-opacity:1"
       d="M 62.405702,113.65894 124.52087,97.199262 111.35202,159.03383 Z"
       id="path6122"
       sodipodi:nodetypes="cccc" />
    <path
       style="fill:none;stroke:#000000;stroke-width:1.5;stroke-linecap:round;stroke-linejoin:miter;stroke-miterlimit:4;stroke-dasharray:none;stroke-opacity:1"
       d="M 115.13179,102.04023 74.482794,113.08034"
       id="path833-1-2-9-6"
       sodipodi:nodetypes="cc" />
    <g
       id="g6224"
       transform="rotate(-4.2089073,238.40568,164.20294)">
      <path
         style="fill:#79b10a;fill-opacity:1;stroke:none;stroke-width:0.264583px;stroke-linecap:butt;stroke-linejoin:miter;stroke-opacity:1"
         d="m 103.82316,114.37231 -15.968095,2.99231 c 0,0 2.034989,5.54187 13.519705,16.11127 0,0 -8.680878,-13.61545 -6.68864,-14.87954 l 5.10849,3.51063 c 0,0 -2.534005,-3.69115 -1.249392,-4.21949 1.034005,2.06606 5.329552,4.0454 5.329552,4.0454 0,0 -1.50361,-4.40765 0.21821,-5.39872 z"
         id="path6205"
         sodipodi:nodetypes="ccccccccc" />
      <path
         style="fill:#79b10a;fill-opacity:1;stroke:none;stroke-width:0.264583px;stroke-linecap:butt;stroke-linejoin:miter;stroke-opacity:1"
         d="m 103.41925,114.46232 15.72753,-4.0717 c 0,0 0.92853,5.46275 -4.5598,19.97138 0,0 1.23877,-15.65697 -1.10171,-15.95542 l -3.13423,5.34768 c 0,0 0.72674,-4.41787 -0.66065,-4.3507 -0.0588,2.30961 -2.71496,5.93659 -2.71496,5.93659 0,0 -0.90272,-4.63988 -2.88244,-4.80598 z"
         id="path6205-0"
         sodipodi:nodetypes="ccccccccc" />
    </g>
    <path
       style="fill:#010100;fill-opacity:1;stroke:none;stroke-width:0.264583px;stroke-linecap:butt;stroke-linejoin:miter;stroke-opacity:1"
       d="m 102.24455,105.308 5.09264,-1.52155 -1.27365,9.55204 6.86074,-2.0498 -4.05804,22.72025 -0.49837,-17.46298 -5.1551,1.54021 z"
       id="path6226" />
    <path
       style="fill:#010100;fill-opacity:1;stroke:none;stroke-width:0.264583px;stroke-linecap:butt;stroke-linejoin:miter;stroke-opacity:1"
       d="m 89.113378,109.12568 -5.15071,1.31159 6.001003,7.53998 -6.938976,1.76697 15.156239,17.40592 -8.545916,-15.23717 5.213883,-1.32767 z"
       id="path6226-1" />
  </g>
</svg>
