<?xml version="1.0" encoding="UTF-8"?>
<svg width="63.581mm" height="60.593mm" version="1.1" viewBox="0 0 63.581 60.593" xmlns="http://www.w3.org/2000/svg" xmlns:cc="http://creativecommons.org/ns#" xmlns:dc="http://purl.org/dc/elements/1.1/" xmlns:rdf="http://www.w3.org/1999/02/22-rdf-syntax-ns#">
 <metadata>
  <rdf:RDF>
   <cc:Work rdf:about="">
    <dc:format>image/svg+xml</dc:format>
    <dc:type rdf:resource="http://purl.org/dc/dcmitype/StillImage"/>
    <dc:title/>
   </cc:Work>
  </rdf:RDF>
 </metadata>
 <g transform="translate(-62.865 -94.846)">
  <g>
   <circle cx="95.119" cy="125.24" r="26.276" fill="#445a5d" stroke="#000" stroke-linecap="round" stroke-linejoin="round" stroke-width="1.2"/>
   <path d="m95.133 95.664-31.391 28.651 31.391 30.284 30.45-30.284z" fill="#9999a1" stroke="#000" stroke-width="1.2"/>
   <circle cx="94.849" cy="118.48" r="7.4947" fill="#4e5732"/>
   <path d="m87.464 146.89c0.5152-0.21261 2.0033-2.7741 1.4592-5.1745-4.7117-2.0027-4.3117-9.0626-4.3117-9.0626-0.47293-14.956 10.673-14.16 10.673-14.16s10.887-0.40228 9.7708 14.125c0 0-0.39921 8.1917-4.3331 9.2673-0.14277 1.125 1.6052 5.0043 1.6052 5.0043l-7.1944 7.7116z" fill="#677343" stroke="#000" stroke-width=".6"/>
   <circle cx="94.979" cy="129.77" r="7.4947" fill="#4e5732"/>
  </g>
  <g stroke="#000" stroke-linecap="round">
   <g stroke-linejoin="round">
    <circle cx="94.928" cy="118.47" r="7.4947" fill="none" stroke-width=".8"/>
    <circle cx="94.77" cy="118" r="2.4503" fill="#445a5d" stroke-width=".8"/>
    <path d="m103.19 115.15c-2.253 1.2622-3.6484 3.643-3.6484 6.2252 2.3e-5 3.9411 3.1953 7.1359 7.1369 7.136 2.9967-1.2e-4 5.6741-1.872 6.7029-4.6861" fill="none" stroke-width="1.2"/>
   </g>
   <path d="m106.66 137.16v-14.538" fill="none" stroke-width="1.2"/>
  </g>
  <g fill="#445a5d" stroke="#000" stroke-linecap="round" stroke-linejoin="round">
   <circle cx="94.901" cy="130.28" r="2.4503" stroke-width=".8"/>
   <circle cx="83.237" cy="119.1" r="2.4503" stroke-width="1.2"/>
   <circle cx="83.242" cy="129.22" r="2.4503" stroke-width="1.2"/>
  </g>
  <g stroke="#000">
   <path d="m83.229 121.53v5.2133" fill="none" stroke-width="1.2"/>
   <circle cx="94.995" cy="137.05" r="2.4503" fill="#445a5d" stroke-linecap="round" stroke-linejoin="round" stroke-width=".8"/>
   <circle cx="94.977" cy="129.89" r="7.4947" fill="none" stroke-linecap="round" stroke-linejoin="round" stroke-width=".8"/>
  </g>
  <g fill="#445a5d" stroke="#000" stroke-linecap="round" stroke-linejoin="round">
   <circle cx="91.671" cy="133.67" r="2.3015" stroke-width=".8"/>
   <circle cx="94.88" cy="108.71" r="2.4503" stroke-width=".8"/>
   <circle cx="78" cy="124.24" r="2.4503" stroke-width="1.2"/>
  </g>
  <path d="m87.597 124.26h-7.1157" fill="none" stroke="#000" stroke-linecap="round" stroke-width="1.2"/>
 </g>
</svg>
