<?xml version="1.0" encoding="UTF-8"?>
<svg width="71.487mm" height="71.487mm" version="1.1" viewBox="0 0 71.487 71.487" xmlns="http://www.w3.org/2000/svg" xmlns:cc="http://creativecommons.org/ns#" xmlns:dc="http://purl.org/dc/elements/1.1/" xmlns:rdf="http://www.w3.org/1999/02/22-rdf-syntax-ns#" xmlns:xlink="http://www.w3.org/1999/xlink">
 <defs>
  <path id="symbol1204" d="m77.407 132.35s-1.4779 13.428 10.534 17.409c-14.424-1.0933-13.559-17.38-13.559-17.38z" stroke="#000" stroke-width=".26458px"/>
 </defs>
 <metadata>
  <rdf:RDF>
   <cc:Work rdf:about="">
    <dc:format>image/svg+xml</dc:format>
    <dc:type rdf:resource="http://purl.org/dc/dcmitype/StillImage"/>
    <dc:title/>
   </cc:Work>
  </rdf:RDF>
 </metadata>
 <g transform="translate(-60.456 -93.559)">
  <circle cx="96.199" cy="129.3" r="34.993" fill="#a6715f" stroke="#000" stroke-linecap="round" stroke-linejoin="round" stroke-width="1.5"/>
  <circle cx="96.107" cy="129.41" r="30.226" fill="#734455" stroke="#000" stroke-linecap="round" stroke-linejoin="round" stroke-width="1.5"/>
  <g>
   <circle cx="65.794" cy="129.34" r="1.3986"/>
   <circle cx="126.32" cy="129.34" r="1.3986"/>
   <circle cx="88.44" cy="100.19" r="1.3986"/>
   <circle cx="88.44" cy="158.52" r="1.3986"/>
   <circle cx="103.85" cy="100.19" r="1.3986"/>
   <circle cx="103.85" cy="158.52" r="1.3986"/>
  </g>
  <g fill="none" stroke="#000">
   <path d="m65.762 129.39h60.637" stroke-width=".5"/>
   <path d="m88.458 100.15 15.405 58.615" stroke-width=".5"/>
   <path d="m103.86 100.09-15.46 58.525" stroke-width=".5"/>
   <path d="m88.403 158.61 37.995-29.225m-22.536 29.38-38.101-29.38m38.101-29.299-38.101 29.299m22.696-29.235 37.94 29.235" stroke-width=".5"/>
  </g>
  <g>
   <path d="m82.616 114.21s13.592 14.318 26.647 0c-14.113 28.084-26.647 0-26.647 0z"/>
   <path transform="matrix(.26458 0 0 .26458 60.456 93.559)" d="m133.87 77.514c-20.821 26.461-43.598 53.914-43.598 77.992 4e-6 24.078 19.519 43.598 43.598 43.598v-121.59z" fill="#8e000c" stroke="#000" stroke-linecap="round" stroke-linejoin="round" stroke-width="4.5354"/>
   <path transform="matrix(.26458 0 0 .26458 60.456 93.559)" d="m133.87 77.514v121.59c24.078 0 43.598-19.519 43.598-43.598s-23.193-51.649-43.598-77.992z" fill="#4e7b59" stroke="#000" stroke-linecap="round" stroke-linejoin="round" stroke-width="4.5354"/>
  </g>
  <use xlink:href="#symbol1204"/>
  <use transform="matrix(-1 0 0 1 192.19 -.00014601)" width="100%" height="100%" xlink:href="#symbol1204"/>
  <g stroke-width="5.4298">
   <use transform="matrix(.18777 -.010272 .0098523 .18009 75.393 72.535)" width="100%" height="100%" xlink:href="#symbol1204"/>
   <use transform="matrix(.036027 .18457 -.17702 .034553 114.25 77.512)" width="100%" height="100%" xlink:href="#symbol1204"/>
   <use transform="matrix(-.072516 .17351 -.16641 -.069551 125.55 92.567)" width="100%" height="100%" xlink:href="#symbol1204"/>
   <use transform="matrix(-.1838 .039749 .038124 .17629 104.42 68.741)" width="100%" height="100%" xlink:href="#symbol1204"/>
   <use transform="matrix(-.1838 .039749 .038124 .17629 105.91 68.745)" width="100%" height="100%" xlink:href="#symbol1204"/>
   <use transform="matrix(-.12575 .13982 -.13411 -.12061 129.69 103.21)" width="100%" height="100%" xlink:href="#symbol1204"/>
   <use transform="matrix(-.072516 .17351 -.16641 -.069551 158.01 122.38)" width="100%" height="100%" xlink:href="#symbol1204"/>
   <use transform="matrix(-.1838 .039749 .038124 .17629 136.88 98.55)" width="100%" height="100%" xlink:href="#symbol1204"/>
   <use transform="matrix(-.1838 .039749 .038124 .17629 138.37 98.553)" width="100%" height="100%" xlink:href="#symbol1204"/>
   <use transform="matrix(-.17959 -.055784 -.053502 .17224 150.36 111.94)" width="100%" height="100%" xlink:href="#symbol1204"/>
   <use transform="matrix(.17959 -.055784 .053502 .17224 107.2 111.92)" width="100%" height="100%" xlink:href="#symbol1204"/>
   <use transform="matrix(-.12575 .13982 -.13411 -.12061 92.579 132.36)" width="100%" height="100%" xlink:href="#symbol1204"/>
   <use transform="matrix(-.18037 -.053215 .051039 -.17299 70.521 158.11)" width="100%" height="100%" xlink:href="#symbol1204"/>
   <use transform="matrix(.18037 -.053215 -.051039 -.17299 56.108 158.11)" width="100%" height="100%" xlink:href="#symbol1204"/>
   <use transform="matrix(-.18037 -.053215 .051039 -.17299 70.26 162.13)" width="100%" height="100%" xlink:href="#symbol1204"/>
   <use transform="matrix(-.18037 -.053215 .051039 -.17299 71.591 162.21)" width="100%" height="100%" xlink:href="#symbol1204"/>
   <use transform="matrix(-.12575 .13982 -.13411 -.12061 92.027 139.4)" width="100%" height="100%" xlink:href="#symbol1204"/>
   <use transform="matrix(-.17959 -.055784 -.053502 .17224 113.28 141.86)" width="100%" height="100%" xlink:href="#symbol1204"/>
   <use transform="matrix(.18694 -.020407 .019572 .1793 72.458 137.98)" width="100%" height="100%" xlink:href="#symbol1204"/>
   <use transform="matrix(-.17959 -.055784 -.053502 .17224 114.67 142.08)" width="100%" height="100%" xlink:href="#symbol1204"/>
   <use transform="matrix(-.16114 -.096939 -.092974 .15455 123.18 147.71)" width="100%" height="100%" xlink:href="#symbol1204"/>
   <use transform="matrix(-.17959 -.055784 -.053502 .17224 117.38 142.3)" width="100%" height="100%" xlink:href="#symbol1204"/>
   <use transform="matrix(-.096992 -.16111 .15452 -.093025 87.037 187.42)" width="100%" height="100%" xlink:href="#symbol1204"/>
   <use transform="matrix(-.069944 .17456 -.16742 -.067084 130.69 156.54)" width="100%" height="100%" xlink:href="#symbol1204"/>
   <use transform="matrix(-.069944 .17456 -.16742 -.067084 129.34 158.45)" width="100%" height="100%" xlink:href="#symbol1204"/>
  </g>
 </g>
</svg>
