<?xml version="1.0" encoding="UTF-8"?>
<svg width="281.84mm" height="295.95mm" version="1.1" viewBox="0 0 281.84 295.95" xmlns="http://www.w3.org/2000/svg" xmlns:cc="http://creativecommons.org/ns#" xmlns:dc="http://purl.org/dc/elements/1.1/" xmlns:rdf="http://www.w3.org/1999/02/22-rdf-syntax-ns#" xmlns:xlink="http://www.w3.org/1999/xlink">
 <defs>
  <symbol id="g2392">
   <path d="m38.509 271.02-0.92246-1.8204-0.06794 0.36661-0.6253-1.0097-0.26207 0.16391-0.87599-1.0256-0.45264 1.2846-0.46799-0.56423-1.1967 2.6046" fill="none" stroke="#000" stroke-width=".265" style="paint-order:normal"/>
   <path d="m38.394 271.08-0.75455-1.4876-0.05039 0.33028-0.73834-1.1937-0.24323 0.16681-0.80124-0.94256 0.22963 1.0935 0.27409-0.16234 0.21938 1.0041 0.34898-0.45558 0.80551 1.6471z" fill="#393939"/>
  </symbol>
  <symbol id="g2922" stroke-width="1.1628">
   <g id="g2922_transform" transform="matrix(.85897 0 0 .86097 1.7082 34.844)">
    <path d="m13.083 250.72 0.04787-4.3908-0.97519-0.8776 1.2361-1.2943 1.4504 1.3731 0.49619-0.507 1.1274 1.1274-1.0332 1.0332-0.49709-0.49709-0.49736 0.49736v3.5304" fill="none" stroke="#000" stroke-width=".23257"/>
    <path d="m14.942 246.62 0.45085-0.45086-0.96164-0.85248-0.64811 0.78434" fill="none" stroke="#000" stroke-width=".11628"/>
    <path d="m12.855 246.08 0.4749-0.4749 0.54179 0.54178-0.46864 0.46864z" fill="none" stroke="#000" stroke-width=".11628"/>
    <path d="m14.438 247.19-0.0022-0.62482-0.97943-4e-3" fill="none" stroke="#000" stroke-width=".11628"/>
    <path d="m14.471 248.77h-0.66444v1.8757" fill="none" stroke="#000" stroke-width=".11628"/>
   </g>
  </symbol>
  <symbol id="g3054">
   <path d="m30.914 235.08v-2.791" fill="none" stroke="#000" stroke-width=".2"/>
   <path d="m30.463 232.91 0.45121-0.62321 0.48187 0.60596" fill="none" stroke="#000" stroke-width=".2"/>
   <path d="m30.304 233.52 0.60529-0.66633 0.64643 0.64789" fill="none" opacity=".99" stroke="#000" stroke-width=".2"/>
   <path d="m30.219 234.05 0.66578-0.62321 0.71102 0.60596" fill="none" opacity=".99" stroke="#000" stroke-width=".2"/>
  </symbol>
  <symbol id="g3166">
   <path d="m45.986 238.17 2.0439-3.1797 0.53242 0.40651 0.3155-0.16433 0.3191 0.12953 1.0022-0.45506 2.0569 3.2693" fill="none" stroke="#000" stroke-width=".2"/>
   <path d="m48.563 235.4 0.23049 0.68283 0.0177 1.5653" fill="none" stroke="#000" stroke-width=".2"/>
   <path d="m48.793 236.08 0.46194-0.72758" fill="none" stroke="#000" stroke-width=".2"/>
  </symbol>
  <symbol id="g4023">
   <path d="m58.282 255.9-0.69391-0.83819 0.23869-4.1738 0.66489 0.5487 0.49886-0.19769 0.85624 1.0838-0.28516 2.9959-0.41154 0.54481" fill="none" stroke="#000" stroke-width=".2"/>
   <path d="m58.492 251.44-2.64e-4 1.1167 0.61151 0.18223 0.17702 0.50207" fill="none" stroke="#000" stroke-width=".1"/>
   <path d="m56.91 254.25 0.41749-0.55057 0.20432-3.288-1.0451 0.805-0.02513 0.39431-0.48003-2e-3 -0.08074 2.2603 0.32673 0.32094" fill="none" stroke="#000" stroke-width=".2"/>
   <path d="m55.662 254.23h1.8664" fill="none" stroke="#000" stroke-width=".2"/>
   <path d="m57.767 255.88h1.8664" fill="none" opacity=".99" stroke="#000" stroke-width=".2"/>
   <path d="m56.999 250.85 0.12707 0.78805-0.73484 1.1773" fill="none" stroke="#000" stroke-width=".1"/>
  </symbol>
  <symbol id="g4225">
   <path d="m79.619 225.44h2.6744" fill="none" stroke="#000" stroke-width=".2"/>
   <path d="m80.975 225.45v-2.4634" fill="none" stroke="#000" stroke-width=".1"/>
   <path d="m80.519 222.99 0.47738 0.45647" fill="none" stroke="#000" stroke-width=".1"/>
   <path d="m80.26 223.06 0.74799 0.65202" fill="none" opacity=".99" stroke="#000" stroke-width=".1"/>
   <path d="m80.239 223.28 0.74799 0.65202" fill="none" opacity=".99" stroke="#000" stroke-width=".1"/>
   <path d="m80.253 223.53 0.74799 0.65202" fill="none" opacity=".99" stroke="#000" stroke-width=".1"/>
   <path d="m80.278 223.8 0.74799 0.65202" fill="none" opacity=".99" stroke="#000" stroke-width=".1"/>
   <path d="m80.302 224.07 0.74799 0.65201" fill="none" opacity=".99" stroke="#000" stroke-width=".1"/>
  </symbol>
  <symbol id="symbol4303">
   <path d="m102.18 238.86v-1.4976" fill="none" stroke="#000" stroke-width=".3"/>
   <path d="m101.71 238.87 0.49004-0.47377" fill="none" stroke="#000" stroke-width=".2"/>
   <path d="m102.17 237.64 0.60036 0.41329 1.0377 0.0194" fill="none" stroke="#000" stroke-width=".2"/>
   <path d="m100.57 235.41s-1.3119 1.4627 0.0304 2.3789c0 0 1.0001 0.34636 1.5698-0.14446 0 0 0.16262 0.28622 0.8067 0.15199 0 0 1.0999 0.96602 1.8235 0.54812 0 0 0.90682-1.2992-0.96328-2.214-0.49939-1.4768-2.5072-1.6361-3.2671-0.72057z" fill="#233921"/>
  </symbol>
  <symbol id="g5525" stroke-width="1.2332">
   <g id="g5525_transform" transform="matrix(.85282 0 0 .77106 5.7617 48.958)">
    <path d="m39.148 213.75h4.0212" fill="none" stroke="#000" stroke-width=".24664"/>
    <path d="m39.465 213.77 0.47114-5.4885 0.61744-0.71526 0.37898-1.3591 1.0043-0.10255 0.47592 1.9172 0.45513 5.7031" fill="none" stroke="#000" stroke-width=".24664"/>
    <path d="m40.553 207.57 0.22226 1.7274 0.83692 0.0644 0.4388 1.4322" fill="none" stroke="#000" stroke-width=".12332"/>
   </g>
  </symbol>
  <symbol id="g5693" stroke-width="1.209">
   <g id="g5693_transform" transform="matrix(.81824 0 0 .83615 8.0662 33.877)">
    <path d="m44.378 206.66h2.7225" fill="none" stroke="#000" stroke-width=".2418"/>
    <path d="m45.706 206.66-0.01363-1.7663-0.72902-0.90178 0.71825-1.7068" fill="none" stroke="#000" stroke-width=".2418"/>
    <path d="m45.692 204.89 0.34611-1.2818 0.9989-0.69505" fill="none" stroke="#000" stroke-width=".2418"/>
    <path d="m45.349 204.54-0.42364 0.31693" fill="none" stroke="#000" stroke-width=".1209"/>
    <path d="m45.063 203.82-0.42364 0.31693" fill="none" opacity=".99" stroke="#000" stroke-width=".1209"/>
    <path d="m45.909 203.73 0.42364 0.31693" fill="none" opacity=".99" stroke="#000" stroke-width=".1209"/>
    <path d="m46.149 204.39-0.42364 0.31693" fill="none" opacity=".99" stroke="#000" stroke-width=".1209"/>
    <path d="m45.712 205.64 0.42364 0.31693" fill="none" opacity=".99" stroke="#000" stroke-width=".1209"/>
    <path d="m45.659 205.07-0.42364 0.31693" fill="none" opacity=".99" stroke="#000" stroke-width=".1209"/>
    <path d="m44.846 203.08 0.42364 0.31693" fill="none" opacity=".99" stroke="#000" stroke-width=".1209"/>
    <path d="m46.567 203.13 0.31693 0.42365" fill="none" opacity=".99" stroke="#000" stroke-width=".1209"/>
    <path d="m46.115 203.05 0.31693 0.42365" fill="none" opacity=".99" stroke="#000" stroke-width=".1209"/>
   </g>
  </symbol>
  <symbol id="symbol7403">
   <path d="m76.46 191.88s4.3493-5.9515 9.023 0.0418" fill="none" stroke="#000" stroke-width=".26458px"/>
  </symbol>
  <symbol id="g7591">
   <path d="m100.78 173.27 1.1568-2.5256 1.6172 1.8066 1.6472-1.0896 0.83243 1.0931 1.9709 0.42768-3.0062 0.8719-0.78866 1.2646-2.1958-0.41257-0.92415 1.0518" fill="none" stroke="#000" stroke-width=".2"/>
   <path d="m97.671 175.8 2.4273-2.7902 2.3796 1.1186c0.0577-9e-3 1.0644-0.84227 1.0644-0.84227l1.1006 1.2551" fill="none" stroke="#000" stroke-width=".2"/>
   <path d="m107.9 172.96 0.78078 1.3332 0.82052 0.18349 0.7676 1.201" fill="none" stroke="#000" stroke-width=".2"/>
  </symbol>
  <symbol id="g7709">
   <path d="m114.25 248.31 0.63625-1.7887 0.88863-1.3158 0.57687 0.95125 0.59742-0.33204 0.46568 1.7513 0.20138 0.74448" fill="none" stroke="#000" stroke-width=".26458px"/>
   <path d="m115.7 248.36 1.5868-0.0495-0.40218-1.5263-0.53401-0.10652-0.31063 0.99806z"/>
  </symbol>
  <symbol id="g7815" stroke-width="1.4467">
   <g id="g7815_transform" transform="matrix(.64324 0 0 .7428 41.772 62.584)">
    <path d="m117.09 243.32 0.69059-1.8203 1.0724-1.9045 1.0091 1.0393 0.46934 2.6927" fill="none" stroke="#000" stroke-width=".28934"/>
    <ellipse cx="119.21" cy="241.24" rx=".64215" ry=".68401" fill="none" stroke="#000" stroke-width=".28934" style="paint-order:normal"/>
    <path d="m118.66 242.41 0.67821-1.1811 0.45719 1.1169" fill="none" stroke="#000" stroke-width=".28934"/>
    <path d="m118.15 241.27 1.7327-0.049" fill="none" stroke="#000" stroke-width=".14467"/>
    <path d="m118.74 242.73 1.1358-0.0313" fill="none" stroke="#000" stroke-width=".14467"/>
   </g>
  </symbol>
  <symbol id="g8091">
   <path d="m141.08 209.65v-2.5543" fill="none" stroke="#000" stroke-width=".2"/>
   <path d="m140.49 209.64 0.22164-0.64536 0.37291-0.33697 0.51785 0.9826" fill="none" stroke="#000" stroke-width=".1"/>
   <path d="m140.8 209.63 0.26195-0.65094" fill="none" stroke="#000" stroke-width=".1"/>
   <path d="m141.11 207.94-0.71788-0.57671c-0.1258-0.67289 0.33231-1.4884 0.33231-1.4884-0.14586-1.3363-0.12778-1.8434 1.165-2.3373 0 0-0.11472 1.3185-0.25548 1.6191 0.25784 0.52659 0.33531 2.1373 0.33531 2.1373z" fill="#203d33"/>
  </symbol>
  <symbol id="g9432">
   <path d="m185.64 225.86-2e-3 -2.4761-0.49172-0.2783-0.718 0.59431" fill="none" stroke="#000" stroke-width=".26458px"/>
   <path d="m185.67 223.89 0.57535-0.55528 1.0531 0.31528" fill="none" stroke="#000" stroke-width=".26458px"/>
   <path d="m185.64 223.39 0.0799-0.96769-0.75162-0.88683" fill="none" stroke="#000" stroke-width=".26458px"/>
   <path d="m185.72 222.42 0.36877-1.0807-0.27061-0.82971" fill="none" stroke="#000" stroke-width=".26458px"/>
   <path d="m185.67 223 0.9408-0.58517 0.78061-1.4235" fill="none" stroke="#000" stroke-width=".26458px"/>
   <path d="m186.21 222.65 0.78524 0.38264" fill="none" stroke="#000" stroke-width=".26458px"/>
   <path d="m184.96 223.27-0.40089-0.45802" fill="none" stroke="#000" stroke-width=".26458px"/>
   <path d="m185.52 222.16-0.52669 0.13723" fill="none" stroke="#000" stroke-width=".26458px"/>
  </symbol>
  <symbol id="g9612">
   <path d="m200.71 220.09v-2.1664l0.66423-0.63708" fill="none" stroke="#000" stroke-width=".2"/>
   <path d="m200.71 217.92-0.60841-0.5781" fill="none" stroke="#000" stroke-width=".2"/>
   <path d="m200.7 218.45-0.60841-0.5781" fill="none" opacity=".99" stroke="#000" stroke-width=".2"/>
   <path d="m200.66 218.47 0.60841-0.5781" fill="none" opacity=".99" stroke="#000" stroke-width=".2"/>
  </symbol>
  <symbol id="g10703">
   <g transform="matrix(.35533 0 0 .52902 114.37 89.442)" stroke-width="2.3065">
    <path d="m178.26 192.46s1.0642 2.9454 1.762 0.36138" fill="none" stroke="#000" stroke-width=".23065"/>
    <path d="m182.7 192.03s-0.56092 1.9626-1.7225 0.82083" fill="none" stroke="#000" stroke-width=".23065"/>
    <path d="m178.83 192.06s0.48997 3.8981 1.2106 1.8804" fill="none" opacity=".99" stroke="#000" stroke-width=".23065"/>
    <path d="m179.18 192.09 0.84134 0.73801v3.828" fill="none" stroke="#000" stroke-width=".23065"/>
    <path d="m181.4 191.79-0.51309 1.2875-0.83506 0.78039" fill="none" stroke="#000" stroke-width=".23065"/>
    <path d="m180.05 193.1 2.2098-0.86065" fill="none" stroke="#000" stroke-width=".23065"/>
    <path d="m180.05 192.48s1.1848 0.21196 2.6694 0.0418c0.91436-0.24379 0.71149-0.96522 0.71149-0.96522-0.78323-0.56332-1.7571-0.75684-1.7571-0.75684-0.43305-1.0304-2.0582-0.88837-2.0582-0.88837-1.4935 0.25513-1.4584 1.1351-1.4584 1.1351-1.0829 0.30449-0.67704 1.4426-0.67704 1.4426 1.1029 0.42573 2.5699-9e-3 2.5699-9e-3" fill="#202e29"/>
   </g>
   <path d="m178.34 192.92s-0.40291 0.36822-0.37101 0.55239" fill="none" stroke="#000" stroke-linejoin="round" stroke-width=".08" style="paint-order:normal"/>
   <path d="m178.34 193.23s0.31542 0.0323 0.36512 0.22237" fill="none" stroke="#000" stroke-width=".1"/>
  </symbol>
 </defs>
 <metadata>
  <rdf:RDF>
   <cc:Work rdf:about="">
    <dc:format>image/svg+xml</dc:format>
    <dc:type rdf:resource="http://purl.org/dc/dcmitype/StillImage"/>
    <dc:title/>
   </cc:Work>
  </rdf:RDF>
 </metadata>
 <g opacity=".99">
  <use transform="translate(4.5962 4.0465)" width="100%" height="100%" xlink:href="#g2392"/>
  <use transform="translate(3.2646 .88108)" width="100%" height="100%" xlink:href="#g2392"/>
  <use transform="matrix(.67225 0 0 .59126 17.141 108.65)" width="100%" height="100%" stroke-width="1.5862" xlink:href="#g2392"/>
  <use transform="translate(-1.5142 -15.258)" width="100%" height="100%" xlink:href="#g2392"/>
  <use transform="matrix(.69934 0 0 .92438 20.813 -.70485)" width="100%" height="100%" stroke-width="1.2437" xlink:href="#g2392"/>
  <use transform="translate(148.18 -224.01)" width="100%" height="100%" xlink:href="#g2392"/>
  <use transform="matrix(.72736 0 0 .82431 161.45 -178.15)" width="100%" height="100%" stroke-width="1.2915" xlink:href="#g2392"/>
  <use transform="translate(155.21 -229.27)" width="100%" height="100%" xlink:href="#g2392"/>
  <g stroke-width="1.0722">
   <use transform="matrix(1.1755 0 0 .73994 212.6 -108.85)" width="100%" height="100%" xlink:href="#g2392"/>
   <use transform="matrix(1.1755 0 0 .73994 209.42 -106.85)" width="100%" height="100%" xlink:href="#g2392"/>
   <use transform="matrix(1.1755 0 0 .73994 212.65 -104.39)" width="100%" height="100%" xlink:href="#g2392"/>
  </g>
  <use transform="matrix(1.4452 0 0 .96594 200.45 -160.98)" width="100%" height="100%" stroke-width=".84637" xlink:href="#g2392"/>
  <use transform="matrix(1.087 0 0 .91034 201.27 -163.69)" width="100%" height="100%" stroke-width="1.0053" xlink:href="#g2392"/>
  <use transform="translate(-2.1219 1.6191)" width="100%" height="100%" xlink:href="#g2922"/>
  <use transform="translate(111.96 -130.74)" width="100%" height="100%" opacity=".99" xlink:href="#g2922"/>
  <use transform="matrix(.67428 0 0 .67959 129.51 -70.85)" width="100%" height="100%" opacity=".99" stroke-width="1.4773" xlink:href="#g2922"/>
  <use transform="matrix(.67428 0 0 .67959 131.95 -68.303)" width="100%" height="100%" opacity=".99" stroke-width="1.4773" xlink:href="#g2922"/>
  <use transform="matrix(.93219 0 0 .77582 3.8946 49.968)" width="100%" height="100%" opacity=".99" stroke-width="1.1759" xlink:href="#g2922"/>
  <use transform="translate(-3.1916 -3.786)" width="100%" height="100%" xlink:href="#g3054"/>
  <use transform="translate(-1.3106 -4.9788)" width="100%" height="100%" opacity=".99" xlink:href="#g3054"/>
  <use transform="translate(-1.9733 -2.2823)" width="100%" height="100%" opacity=".99" xlink:href="#g3054"/>
  <use transform="translate(3.4902 10.572)" width="100%" height="100%" opacity=".99" xlink:href="#g3054"/>
  <use transform="translate(7.7845 21.064)" width="100%" height="100%" opacity=".99" xlink:href="#g3054"/>
  <g stroke-width="1.2143">
   <use transform="matrix(.85522 0 0 .79296 9.9237 71.616)" width="100%" height="100%" opacity=".99" xlink:href="#g3054"/>
   <use transform="matrix(.85522 0 0 .79296 11.715 72.073)" width="100%" height="100%" opacity=".99" xlink:href="#g3054"/>
   <use transform="matrix(.85522 0 0 .79296 8.8477 73.271)" width="100%" height="100%" opacity=".99" xlink:href="#g3054"/>
   <use transform="matrix(.85522 0 0 .79296 -9.9942 45.151)" width="100%" height="100%" opacity=".99" xlink:href="#g3054"/>
  </g>
  <use transform="matrix(.78253 0 0 .77932 11.749 53.391)" width="100%" height="100%" stroke-width="1.2805" xlink:href="#g3166"/>
  <use transform="matrix(1.2284 0 0 1.4835 -2.283 -141.57)" width="100%" height="100%" opacity=".99" stroke-width=".74079" xlink:href="#g3166"/>
  <use transform="matrix(1.5058 0 0 1.6206 -9.281 -171.24)" width="100%" height="100%" opacity=".99" stroke-width=".64015" xlink:href="#g3166"/>
  <use transform="matrix(.96618 0 0 .98585 18.433 -121.9)" width="100%" height="100%" opacity=".99" stroke-width="1.0246" xlink:href="#g3166"/>
  <use transform="translate(.16985 -.0774)" xlink:href="#g4023"/>
  <use transform="translate(9.5146 2.9637)" width="100%" height="100%" opacity=".99" xlink:href="#g4023"/>
  <g stroke-width="1.2255">
   <use transform="matrix(.86573 0 0 .76912 21.697 46.999)" width="100%" height="100%" opacity=".99" xlink:href="#g4023"/>
   <use transform="matrix(.86573 0 0 .76912 26.115 56.765)" width="100%" height="100%" opacity=".99" xlink:href="#g4023"/>
   <use transform="matrix(.86573 0 0 .76912 64.482 -137.67)" width="100%" height="100%" opacity=".99" xlink:href="#g4023"/>
   <use transform="matrix(.86573 0 0 .76912 72.987 -128.03)" width="100%" height="100%" opacity=".99" xlink:href="#g4023"/>
  </g>
  <use xlink:href="#g4225"/>
  <use transform="translate(8.8079 1.7291)" width="100%" height="100%" opacity=".99" xlink:href="#g4225"/>
  <use transform="matrix(1.13 0 0 1.1294 -6.1851 -55.391)" width="100%" height="100%" opacity=".99" stroke-width=".88517" xlink:href="#symbol4303"/>
  <use transform="matrix(.63515 0 0 .66034 16.382 56.617)" width="100%" height="100%" opacity=".99" stroke-width="1.5441" xlink:href="#symbol4303"/>
  <use transform="matrix(.63515 0 0 .66034 32.515 38.877)" width="100%" height="100%" opacity=".99" stroke-width="1.5441" xlink:href="#symbol4303"/>
  <use transform="matrix(1.7862 0 0 1.7862 -53.105 -191.94)" width="100%" height="100%" opacity=".99" stroke-width=".55984" xlink:href="#g4225"/>
  <use transform="translate(10.943 1.7321)" width="100%" height="100%" opacity=".99" xlink:href="#g4225"/>
  <use transform="matrix(.70895 0 0 .72113 26.61 63.933)" width="100%" height="100%" opacity=".99" stroke-width="1.3986" xlink:href="#symbol4303"/>
  <use transform="translate(-1.5193 -5.3939)" width="100%" height="100%" xlink:href="#g5525"/>
  <use transform="translate(16.979 -25.546)" width="100%" height="100%" opacity=".99" xlink:href="#g5525"/>
  <use transform="matrix(1.3517 0 0 1.335 -8.8012 -66.964)" width="100%" height="100%" opacity=".99" stroke-width=".74443" xlink:href="#g5525"/>
  <use transform="translate(4.1862 -.69565)" width="100%" height="100%" xlink:href="#g5693"/>
  <use transform="matrix(1.3787 0 0 1.3769 -19.889 -71.93)" width="100%" height="100%" opacity=".99" stroke-width=".72581" xlink:href="#g5693"/>
  <use transform="translate(5.2061 -.68306)" width="100%" height="100%" opacity=".99" xlink:href="#g3054"/>
  <use transform="translate(7.0871 -1.8759)" width="100%" height="100%" opacity=".99" xlink:href="#g3054"/>
  <use transform="translate(6.4244 .82065)" width="100%" height="100%" opacity=".99" xlink:href="#g3054"/>
  <use transform="translate(4.8457 11.919)" width="100%" height="100%" opacity=".99" xlink:href="#g3054"/>
  <use transform="translate(4.9587 9.4042)" width="100%" height="100%" opacity=".99" xlink:href="#g3054"/>
  <g stroke-width="1.2143">
   <use transform="matrix(.85522 0 0 .79296 11.059 74.125)" width="100%" height="100%" opacity=".99" xlink:href="#g3054"/>
   <use transform="matrix(.85522 0 0 .79296 -9.0686 46.13)" width="100%" height="100%" opacity=".99" xlink:href="#g3054"/>
   <use transform="matrix(.85522 0 0 .79296 -10.072 48.2)" width="100%" height="100%" opacity=".99" xlink:href="#g3054"/>
  </g>
  <use transform="translate(13.083 1.7282)" width="100%" height="100%" opacity=".99" xlink:href="#g4225"/>
  <g stroke-width="1.3986">
   <use transform="matrix(.70895 0 0 .72113 28.479 66.31)" width="100%" height="100%" opacity=".99" xlink:href="#symbol4303"/>
   <use transform="matrix(.70895 0 0 .72113 30.701 64.738)" width="100%" height="100%" opacity=".99" xlink:href="#symbol4303"/>
   <use transform="matrix(.70895 0 0 .72113 22.539 64.463)" width="100%" height="100%" opacity=".99" xlink:href="#symbol4303"/>
  </g>
  <g stroke-width=".88517">
   <use transform="matrix(1.13 0 0 1.1294 -12.812 -44.378)" width="100%" height="100%" opacity=".99" xlink:href="#symbol4303"/>
   <use transform="matrix(1.13 0 0 1.1294 .62327 -55.497)" width="100%" height="100%" opacity=".99" xlink:href="#symbol4303"/>
   <use transform="matrix(1.13 0 0 1.1294 2.7456 -58.584)" width="100%" height="100%" opacity=".99" xlink:href="#symbol4303"/>
   <use transform="matrix(1.13 0 0 1.1294 -9.5269 -42.138)" width="100%" height="100%" opacity=".99" xlink:href="#symbol4303"/>
   <use transform="matrix(1.13 0 0 1.1294 -3.6804 -42.806)" width="100%" height="100%" opacity=".99" xlink:href="#symbol4303"/>
   <use transform="matrix(1.13 0 0 1.1294 -21.504 -49.433)" width="100%" height="100%" opacity=".99" xlink:href="#symbol4303"/>
  </g>
  <use transform="matrix(.63515 0 0 .66034 18.093 58.666)" width="100%" height="100%" opacity=".99" stroke-width="1.5441" xlink:href="#symbol4303"/>
  <use transform="matrix(.63515 0 0 .66034 19.785 55.383)" width="100%" height="100%" opacity=".99" stroke-width="1.5441" xlink:href="#symbol4303"/>
  <g stroke-width=".55984">
   <use transform="matrix(1.7862 0 0 1.7862 -48.328 -191.94)" width="100%" height="100%" opacity=".99" xlink:href="#g4225"/>
   <use transform="matrix(1.7862 0 0 1.7862 -34.925 -207.55)" width="100%" height="100%" opacity=".99" xlink:href="#g4225"/>
   <use transform="matrix(1.7862 0 0 1.7862 -30.148 -207.55)" width="100%" height="100%" opacity=".99" xlink:href="#g4225"/>
   <use transform="matrix(1.7862 0 0 1.7862 -25.371 -207.55)" width="100%" height="100%" opacity=".99" xlink:href="#g4225"/>
  </g>
  <use transform="matrix(.63515 0 0 .66034 36.098 40.968)" width="100%" height="100%" opacity=".99" stroke-width="1.5441" xlink:href="#symbol4303"/>
  <use transform="matrix(.63515 0 0 .66034 39.173 39.322)" width="100%" height="100%" opacity=".99" stroke-width="1.5441" xlink:href="#symbol4303"/>
  <g transform="translate(-1.0755 -.83279)" fill="none" stroke="#000" stroke-width=".1">
   <path d="m45.626 231.15-0.0026-0.56185-0.40741-0.32801-0.37716-0.0508"/>
   <path d="m45.2 229.72 0.01578 0.53561"/>
   <path d="m45.624 230.58 0.26929-0.97427"/>
   <path d="m45.775 230.04 0.67077 0.0577"/>
  </g>
  <g transform="translate(-.023928 .73593)" fill="none" opacity=".99" stroke="#000" stroke-width=".1">
   <path d="m45.626 231.15-0.0026-0.56185-0.40741-0.32801-0.37716-0.0508"/>
   <path d="m45.2 229.72 0.01578 0.53561"/>
   <path d="m45.624 230.58 0.26929-0.97427"/>
   <path d="m45.775 230.04 0.67077 0.0577"/>
  </g>
  <g transform="translate(-3.4085 -2.2037)" fill="none" opacity=".99" stroke="#000" stroke-width=".1">
   <path d="m45.626 231.15-0.0026-0.56185-0.40741-0.32801-0.37716-0.0508"/>
   <path d="m45.2 229.72 0.01578 0.53561"/>
   <path d="m45.624 230.58 0.26929-0.97427"/>
   <path d="m45.775 230.04 0.67077 0.0577"/>
  </g>
  <g transform="translate(8.8486 1.7861)" fill="none" opacity=".99" stroke="#000" stroke-width=".1">
   <path d="m45.626 231.15-0.0026-0.56185-0.40741-0.32801-0.37716-0.0508"/>
   <path d="m45.2 229.72 0.01578 0.53561"/>
   <path d="m45.624 230.58 0.26929-0.97427"/>
   <path d="m45.775 230.04 0.67077 0.0577"/>
  </g>
  <g transform="translate(10.174 -.00037468)" fill="none" opacity=".99" stroke="#000" stroke-width=".1">
   <path d="m45.626 231.15-0.0026-0.56185-0.40741-0.32801-0.37716-0.0508"/>
   <path d="m45.2 229.72 0.01578 0.53561"/>
   <path d="m45.624 230.58 0.26929-0.97427"/>
   <path d="m45.775 230.04 0.67077 0.0577"/>
  </g>
  <g transform="translate(11.722 1.3518)" fill="none" opacity=".99" stroke="#000" stroke-width=".1">
   <path d="m45.626 231.15-0.0026-0.56185-0.40741-0.32801-0.37716-0.0508"/>
   <path d="m45.2 229.72 0.01578 0.53561"/>
   <path d="m45.624 230.58 0.26929-0.97427"/>
   <path d="m45.775 230.04 0.67077 0.0577"/>
  </g>
  <g transform="translate(7.246 -5.725)" fill="none" opacity=".99" stroke="#000" stroke-width=".1">
   <path d="m45.626 231.15-0.0026-0.56185-0.40741-0.32801-0.37716-0.0508"/>
   <path d="m45.2 229.72 0.01578 0.53561"/>
   <path d="m45.624 230.58 0.26929-0.97427"/>
   <path d="m45.775 230.04 0.67077 0.0577"/>
  </g>
  <g transform="translate(11.656 -7.3955)" fill="none" opacity=".99" stroke="#000" stroke-width=".1">
   <path d="m45.626 231.15-0.0026-0.56185-0.40741-0.32801-0.37716-0.0508"/>
   <path d="m45.2 229.72 0.01578 0.53561"/>
   <path d="m45.624 230.58 0.26929-0.97427"/>
   <path d="m45.775 230.04 0.67077 0.0577"/>
  </g>
  <g transform="translate(7.8808 -7.9634)" fill="none" opacity=".99" stroke="#000" stroke-width=".1">
   <path d="m45.626 231.15-0.0026-0.56185-0.40741-0.32801-0.37716-0.0508"/>
   <path d="m45.2 229.72 0.01578 0.53561"/>
   <path d="m45.624 230.58 0.26929-0.97427"/>
   <path d="m45.775 230.04 0.67077 0.0577"/>
  </g>
  <g transform="translate(12.458 -5.1571)" fill="none" opacity=".99" stroke="#000" stroke-width=".1">
   <path d="m45.626 231.15-0.0026-0.56185-0.40741-0.32801-0.37716-0.0508"/>
   <path d="m45.2 229.72 0.01578 0.53561"/>
   <path d="m45.624 230.58 0.26929-0.97427"/>
   <path d="m45.775 230.04 0.67077 0.0577"/>
  </g>
  <g transform="translate(18.772 -6.7273)" fill="none" opacity=".99" stroke="#000" stroke-width=".1">
   <path d="m45.626 231.15-0.0026-0.56185-0.40741-0.32801-0.37716-0.0508"/>
   <path d="m45.2 229.72 0.01578 0.53561"/>
   <path d="m45.624 230.58 0.26929-0.97427"/>
   <path d="m45.775 230.04 0.67077 0.0577"/>
  </g>
  <g transform="translate(49.373 -98.674)" fill="none" opacity=".99" stroke="#000" stroke-width=".1">
   <path d="m45.626 231.15-0.0026-0.56185-0.40741-0.32801-0.37716-0.0508"/>
   <path d="m45.2 229.72 0.01578 0.53561"/>
   <path d="m45.624 230.58 0.26929-0.97427"/>
   <path d="m45.775 230.04 0.67077 0.0577"/>
  </g>
  <g transform="translate(58.46 -101.35)" fill="none" opacity=".99" stroke="#000" stroke-width=".1">
   <path d="m45.626 231.15-0.0026-0.56185-0.40741-0.32801-0.37716-0.0508"/>
   <path d="m45.2 229.72 0.01578 0.53561"/>
   <path d="m45.624 230.58 0.26929-0.97427"/>
   <path d="m45.775 230.04 0.67077 0.0577"/>
  </g>
  <g transform="translate(61.601 -97.204)" fill="none" opacity=".99" stroke="#000" stroke-width=".1">
   <path d="m45.626 231.15-0.0026-0.56185-0.40741-0.32801-0.37716-0.0508"/>
   <path d="m45.2 229.72 0.01578 0.53561"/>
   <path d="m45.624 230.58 0.26929-0.97427"/>
   <path d="m45.775 230.04 0.67077 0.0577"/>
  </g>
  <g transform="translate(54.652 -97.137)" fill="none" opacity=".99" stroke="#000" stroke-width=".1">
   <path d="m45.626 231.15-0.0026-0.56185-0.40741-0.32801-0.37716-0.0508"/>
   <path d="m45.2 229.72 0.01578 0.53561"/>
   <path d="m45.624 230.58 0.26929-0.97427"/>
   <path d="m45.775 230.04 0.67077 0.0577"/>
  </g>
  <g transform="translate(64.741 -93.997)" fill="none" opacity=".99" stroke="#000" stroke-width=".1">
   <path d="m45.626 231.15-0.0026-0.56185-0.40741-0.32801-0.37716-0.0508"/>
   <path d="m45.2 229.72 0.01578 0.53561"/>
   <path d="m45.624 230.58 0.26929-0.97427"/>
   <path d="m45.775 230.04 0.67077 0.0577"/>
  </g>
  <g transform="translate(67.414 -92.126)" fill="none" opacity=".99" stroke="#000" stroke-width=".1">
   <path d="m45.626 231.15-0.0026-0.56185-0.40741-0.32801-0.37716-0.0508"/>
   <path d="m45.2 229.72 0.01578 0.53561"/>
   <path d="m45.624 230.58 0.26929-0.97427"/>
   <path d="m45.775 230.04 0.67077 0.0577"/>
  </g>
  <g transform="translate(51.044 -96.335)" fill="none" opacity=".99" stroke="#000" stroke-width=".1">
   <path d="m45.626 231.15-0.0026-0.56185-0.40741-0.32801-0.37716-0.0508"/>
   <path d="m45.2 229.72 0.01578 0.53561"/>
   <path d="m45.624 230.58 0.26929-0.97427"/>
   <path d="m45.775 230.04 0.67077 0.0577"/>
  </g>
  <g transform="translate(1.6807 -.83873)" fill="none" opacity=".99" stroke="#000" stroke-width=".1">
   <path d="m45.626 231.15-0.0026-0.56185-0.40741-0.32801-0.37716-0.0508"/>
   <path d="m45.2 229.72 0.01578 0.53561"/>
   <path d="m45.624 230.58 0.26929-0.97427"/>
   <path d="m45.775 230.04 0.67077 0.0577"/>
  </g>
  <use transform="matrix(1.4871 0 0 1.4863 -86.49 -161.4)" width="100%" height="100%" opacity=".99" stroke-width=".67263" xlink:href="#symbol4303"/>
  <use transform="matrix(1.4871 0 0 1.4863 -82.404 -148.91)" width="100%" height="100%" opacity=".99" stroke-width=".67263" xlink:href="#symbol4303"/>
  <g stroke-width="1.4325">
   <use transform="matrix(.64465 0 0 .75594 27.169 46.18)" width="100%" height="100%" xlink:href="#symbol7403"/>
   <use transform="matrix(.64465 0 0 .75594 29.334 48.109)" width="100%" height="100%" opacity=".99" xlink:href="#symbol7403"/>
   <use transform="matrix(.64465 0 0 .75594 26.615 27.297)" width="100%" height="100%" opacity=".99" xlink:href="#symbol7403"/>
   <use transform="matrix(.64465 0 0 .75594 28.779 29.227)" width="100%" height="100%" opacity=".99" xlink:href="#symbol7403"/>
   <use transform="matrix(.64465 0 0 .75594 36.301 30.368)" width="100%" height="100%" opacity=".99" xlink:href="#symbol7403"/>
   <use transform="matrix(.64465 0 0 .75594 38.465 32.298)" width="100%" height="100%" opacity=".99" xlink:href="#symbol7403"/>
   <use transform="matrix(.64465 0 0 .75594 33.897 28.225)" width="100%" height="100%" opacity=".99" xlink:href="#symbol7403"/>
  </g>
  <use transform="matrix(.63515 0 0 .66034 15.03 40.017)" width="100%" height="100%" opacity=".99" stroke-width="1.5441" xlink:href="#symbol4303"/>
  <use transform="matrix(.63515 0 0 .66034 18.612 42.108)" width="100%" height="100%" opacity=".99" stroke-width="1.5441" xlink:href="#symbol4303"/>
  <use transform="translate(6.1091 -35.164)" width="100%" height="100%" opacity=".99" xlink:href="#g4225"/>
  <use transform="translate(8.2444 -35.161)" width="100%" height="100%" opacity=".99" xlink:href="#g4225"/>
  <use transform="translate(10.384 -35.165)" width="100%" height="100%" opacity=".99" xlink:href="#g4225"/>
  <use transform="matrix(.78239 0 0 .9201 28.274 21.85)" width="100%" height="100%" stroke-width="1.1786" xlink:href="#g7591"/>
  <g stroke-width="1.5441">
   <use transform="matrix(.63515 0 0 .66034 40.6 29.99)" width="100%" height="100%" opacity=".99" xlink:href="#symbol4303"/>
   <use transform="matrix(.63515 0 0 .66034 39.394 32.432)" width="100%" height="100%" opacity=".99" xlink:href="#symbol4303"/>
   <use transform="matrix(.63515 0 0 .66034 39.252 23.936)" width="100%" height="100%" opacity=".99" xlink:href="#symbol4303"/>
  </g>
  <use xlink:href="#g7709"/>
  <use transform="matrix(1.0086 0 0 .66352 -1.4294 68.407)" width="100%" height="100%" opacity=".99" stroke-width="1.2224" xlink:href="#g7709"/>
  <use xlink:href="#g7815"/>
  <use transform="translate(6.8841 -12.615)" width="100%" height="100%" opacity=".99" xlink:href="#g7815"/>
  <use transform="translate(10.76 -29.453)" width="100%" height="100%" opacity=".99" xlink:href="#g7815"/>
  <use transform="translate(12.666 -23.759)" width="100%" height="100%" opacity=".99" xlink:href="#g7815"/>
  <use transform="translate(-6.5526 -61.435)" width="100%" height="100%" opacity=".99" xlink:href="#g7709"/>
  <use transform="matrix(1.0468 0 0 .58839 -50.763 67.664)" width="100%" height="100%" opacity=".99" stroke-width="1.2742" xlink:href="#g7709"/>
  <use transform="matrix(.85398 0 0 .71458 -39.907 28.155)" width="100%" height="100%" opacity=".99" stroke-width="1.2801" xlink:href="#g7709"/>
  <g stroke-width="1.4325">
   <use transform="matrix(.64465 0 0 .75594 88.697 93.265)" width="100%" height="100%" opacity=".99" xlink:href="#symbol7403"/>
   <use transform="matrix(.64465 0 0 .75594 93.519 97.89)" width="100%" height="100%" opacity=".99" xlink:href="#symbol7403"/>
   <use transform="matrix(.64465 0 0 .75594 97.679 96.391)" width="100%" height="100%" opacity=".99" xlink:href="#symbol7403"/>
  </g>
  <use transform="translate(70.025 4.0505)" width="100%" height="100%" opacity=".99" xlink:href="#g4225"/>
  <use transform="translate(72.16 4.0534)" width="100%" height="100%" opacity=".99" xlink:href="#g4225"/>
  <use transform="translate(74.299 4.0496)" width="100%" height="100%" opacity=".99" xlink:href="#g4225"/>
  <use transform="translate(56.977 19.548)" width="100%" height="100%" opacity=".99" xlink:href="#g4225"/>
  <use transform="translate(59.112 19.551)" width="100%" height="100%" opacity=".99" xlink:href="#g4225"/>
  <g stroke-width="1.3986">
   <use transform="matrix(.70895 0 0 .72113 98.533 45.009)" width="100%" height="100%" opacity=".99" xlink:href="#symbol4303"/>
   <use transform="matrix(.70895 0 0 .72113 96.197 43.535)" width="100%" height="100%" opacity=".99" xlink:href="#symbol4303"/>
   <use transform="matrix(.70895 0 0 .72113 72.174 67.396)" width="100%" height="100%" opacity=".99" xlink:href="#symbol4303"/>
   <use transform="matrix(.70895 0 0 .72113 74.234 65.239)" width="100%" height="100%" opacity=".99" xlink:href="#symbol4303"/>
   <use transform="matrix(.70895 0 0 .72113 74.673 61.841)" width="100%" height="100%" opacity=".99" xlink:href="#symbol4303"/>
   <use transform="matrix(.70895 0 0 .72113 77.348 63.779)" width="100%" height="100%" opacity=".99" xlink:href="#symbol4303"/>
   <use transform="matrix(.70895 0 0 .72113 91.434 57.017)" width="100%" height="100%" opacity=".99" xlink:href="#symbol4303"/>
  </g>
  <use transform="translate(1.2616 -5.8409)" width="100%" height="100%" xlink:href="#g8091"/>
  <use transform="translate(2.5843 -5.319)" width="100%" height="100%" opacity=".99" xlink:href="#g8091"/>
  <use transform="translate(4.0282 -5.546)" width="100%" height="100%" opacity=".99" xlink:href="#g8091"/>
  <use transform="translate(5.1681 -5.1315)" width="100%" height="100%" opacity=".99" xlink:href="#g8091"/>
  <use transform="translate(16.353 8.2795)" width="100%" height="100%" opacity=".99" xlink:href="#g8091"/>
  <use transform="translate(17.592 8.0939)" width="100%" height="100%" opacity=".99" xlink:href="#g8091"/>
  <use transform="translate(19.115 8.3637)" width="100%" height="100%" opacity=".99" xlink:href="#g8091"/>
  <path d="m141.65 203.27h6.0248" fill="none" stroke="#1c4d70" stroke-linecap="round" stroke-width=".2"/>
  <path d="m156.47 217h4.437" fill="none" opacity=".99" stroke="#1c4d70" stroke-linecap="round" stroke-width=".2"/>
  <g stroke-width="1.3986">
   <use transform="matrix(.70895 0 0 .72113 128.87 56.727)" width="100%" height="100%" opacity=".99" xlink:href="#symbol4303"/>
   <use transform="matrix(.70895 0 0 .72113 125.58 58.387)" width="100%" height="100%" opacity=".99" xlink:href="#symbol4303"/>
   <use transform="matrix(.70895 0 0 .72113 132.75 61.098)" width="100%" height="100%" opacity=".99" xlink:href="#symbol4303"/>
   <use transform="matrix(.70895 0 0 .72113 127.62 60.889)" width="100%" height="100%" opacity=".99" xlink:href="#symbol4303"/>
   <use transform="matrix(.70895 0 0 .72113 132.25 58.366)" width="100%" height="100%" opacity=".99" xlink:href="#symbol4303"/>
   <use transform="matrix(.70895 0 0 .72113 133.58 56.07)" width="100%" height="100%" opacity=".99" xlink:href="#symbol4303"/>
  </g>
  <use xlink:href="#g9432"/>
  <use transform="translate(-2.7935 -2.7123)" width="100%" height="100%" opacity=".99" xlink:href="#g9432"/>
  <use transform="translate(-.054992 -4.3304)" width="100%" height="100%" opacity=".99" xlink:href="#g9432"/>
  <use transform="translate(-5.5389 -3.5514)" width="100%" height="100%" opacity=".99" xlink:href="#g9432"/>
  <use transform="translate(2.5927 1.3509)" width="100%" height="100%" opacity=".99" xlink:href="#g9432"/>
  <use transform="translate(-.11583 4.1177)" width="100%" height="100%" opacity=".99" xlink:href="#g9432"/>
  <use transform="matrix(1 0 0 1.022 .36295 -4.8494)" width="100%" height="100%" stroke-width=".98917" xlink:href="#g9612"/>
  <use transform="translate(.86771 -.0034984)" width="100%" height="100%" opacity=".99" xlink:href="#g9612"/>
  <use transform="matrix(1.2152 0 0 1.1695 -41.55 -37.327)" width="100%" height="100%" opacity=".99" stroke-width=".83882" xlink:href="#g9612"/>
  <path d="m198.63 219.59h4.437" fill="none" opacity=".99" stroke="#1c4d70" stroke-linecap="round" stroke-width=".2"/>
  <use transform="matrix(1 0 0 1.022 96.327 96.302)" width="100%" height="100%" opacity=".99" stroke-width=".98917" xlink:href="#g9612"/>
  <use transform="translate(96.832 101.15)" width="100%" height="100%" opacity=".99" xlink:href="#g9612"/>
  <use transform="matrix(1.2152 0 0 1.1695 54.414 63.824)" width="100%" height="100%" opacity=".99" stroke-width=".83882" xlink:href="#g9612"/>
  <path d="m96.064 101.25h4.4371" fill="none" opacity=".99" stroke="#1c4d70" stroke-linecap="round" stroke-width=".2"/>
  <use transform="matrix(1 0 0 1.022 -6.2586 -23.379)" width="100%" height="100%" opacity=".99" stroke-width=".98917" xlink:href="#g9612"/>
  <use transform="translate(-4.8107 -18.555)" width="100%" height="100%" opacity=".99" xlink:href="#g9612"/>
  <use transform="matrix(1.2152 0 0 1.1695 -48.716 -55.875)" width="100%" height="100%" opacity=".99" stroke-width=".83882" xlink:href="#g9612"/>
  <path d="m192.11 200.99h4.437" fill="none" opacity=".99" stroke="#1c4d70" stroke-linecap="round" stroke-width=".2"/>
  <use transform="translate(68.709 -37.517)" width="100%" height="100%" opacity=".99" xlink:href="#g2392"/>
  <use transform="translate(99.522 -42.993)" width="100%" height="100%" opacity=".99" xlink:href="#g2392"/>
  <use transform="translate(80.546 16.297)" width="100%" height="100%" opacity=".99" xlink:href="#g3054"/>
  <use transform="translate(82.149 19.638)" width="100%" height="100%" opacity=".99" xlink:href="#g3054"/>
  <use transform="translate(82.283 17.633)" width="100%" height="100%" opacity=".99" xlink:href="#g3054"/>
  <use transform="translate(107.01 -4.0157)" width="100%" height="100%" opacity=".99" xlink:href="#g3054"/>
  <use transform="translate(108.74 -8.0247)" width="100%" height="100%" opacity=".99" xlink:href="#g3054"/>
  <use transform="translate(106.87 -9.0938)" width="100%" height="100%" opacity=".99" xlink:href="#g3054"/>
  <use transform="translate(93.258 -46.32)" width="100%" height="100%" opacity=".99" xlink:href="#g2392"/>
  <use transform="translate(130.98 -34.904)" width="100%" height="100%" opacity=".99" xlink:href="#g2392"/>
  <use transform="translate(194.41 -70.157)" width="100%" height="100%" opacity=".99" xlink:href="#g2392"/>
  <use transform="translate(186.1 -67.083)" width="100%" height="100%" opacity=".99" xlink:href="#g2392"/>
  <use transform="translate(187.44 -56.753)" width="100%" height="100%" opacity=".99" xlink:href="#g2392"/>
  <use transform="translate(190.49 -68.409)" width="100%" height="100%" opacity=".99" xlink:href="#g2392"/>
  <g stroke-width="1.3986">
   <use transform="matrix(.70895 0 0 .72113 146.18 35.734)" width="100%" height="100%" opacity=".99" xlink:href="#symbol4303"/>
   <use transform="matrix(.70895 0 0 .72113 149.2 37.246)" width="100%" height="100%" opacity=".99" xlink:href="#symbol4303"/>
   <use transform="matrix(.70895 0 0 .72113 145.61 47.451)" width="100%" height="100%" opacity=".99" xlink:href="#symbol4303"/>
  </g>
  <use transform="translate(154.28 -4.679)" width="100%" height="100%" opacity=".99" xlink:href="#g4225"/>
  <use transform="translate(156.41 -4.6761)" width="100%" height="100%" opacity=".99" xlink:href="#g4225"/>
  <use transform="translate(158.55 -4.6799)" width="100%" height="100%" opacity=".99" xlink:href="#g4225"/>
  <use transform="matrix(.78239 0 0 .9201 146.1 63.528)" width="100%" height="100%" opacity=".99" stroke-width="1.1786" xlink:href="#g7591"/>
  <g stroke-width="1.3986">
   <use transform="matrix(.70895 0 0 .72113 -.10624 36.705)" width="100%" height="100%" opacity=".99" xlink:href="#symbol4303"/>
   <use transform="matrix(.70895 0 0 .72113 3.5019 33.364)" width="100%" height="100%" opacity=".99" xlink:href="#symbol4303"/>
   <use transform="matrix(.70895 0 0 .72113 2.8337 39.912)" width="100%" height="100%" opacity=".99" xlink:href="#symbol4303"/>
   <use transform="matrix(.70895 0 0 .72113 3.6355 37.507)" width="100%" height="100%" opacity=".99" xlink:href="#symbol4303"/>
   <use transform="matrix(.70895 0 0 .72113 3.101 43.52)" width="100%" height="100%" opacity=".99" xlink:href="#symbol4303"/>
   <use transform="matrix(.70895 0 0 .72113 -12 20)" width="100%" height="100%" opacity=".99" xlink:href="#symbol4303"/>
   <use transform="matrix(.70895 0 0 .72113 -2.2444 17.194)" width="100%" height="100%" opacity=".99" xlink:href="#symbol4303"/>
  </g>
  <use transform="translate(117.09 13.09)" width="100%" height="100%" opacity=".99" xlink:href="#g3054"/>
  <use transform="translate(115.22 12.02)" width="100%" height="100%" opacity=".99" xlink:href="#g3054"/>
  <use transform="translate(106.14 15.228)" width="100%" height="100%" opacity=".99" xlink:href="#g3054"/>
  <use transform="translate(108.28 14.803)" width="100%" height="100%" opacity=".99" xlink:href="#g3054"/>
  <use transform="translate(214.68 -9.9328)" width="100%" height="100%" opacity=".99" xlink:href="#g3054"/>
  <use transform="translate(215.75 -11.422)" width="100%" height="100%" opacity=".99" xlink:href="#g3054"/>
  <use transform="translate(213.47 -9.229)" width="100%" height="100%" opacity=".99" xlink:href="#g3054"/>
  <use transform="translate(216.15 -8.9879)" width="100%" height="100%" opacity=".99" xlink:href="#g3054"/>
  <use transform="translate(116.82 -61.546)" width="100%" height="100%" opacity=".99" xlink:href="#g4023"/>
  <use transform="translate(131.29 -81.465)" width="100%" height="100%" opacity=".99" xlink:href="#g4023"/>
  <use transform="translate(134.41 -84.3)" width="100%" height="100%" opacity=".99" xlink:href="#g4023"/>
  <use transform="translate(149.61 -87.816)" width="100%" height="100%" opacity=".99" xlink:href="#g4023"/>
  <use transform="translate(143.22 -68.283)" width="100%" height="100%" opacity=".99" xlink:href="#g4023"/>
  <use transform="translate(178.28 -98.869)" width="100%" height="100%" opacity=".99" xlink:href="#g2392"/>
  <use transform="translate(172.66 -96.837)" width="100%" height="100%" opacity=".99" xlink:href="#g2392"/>
  <use transform="translate(189.37 -104.48)" width="100%" height="100%" opacity=".99" xlink:href="#g2392"/>
  <use transform="translate(152.48 -79.021)" width="100%" height="100%" opacity=".99" xlink:href="#g2392"/>
  <use transform="translate(-8.6071 6.2058)" xlink:href="#g10703"/>
  <use transform="translate(-6.4603 7.2211)" width="100%" height="100%" opacity=".99" xlink:href="#g10703"/>
  <use transform="translate(-7.2404 5.4273)" width="100%" height="100%" opacity=".99" xlink:href="#g10703"/>
  <use transform="translate(-4.9523 4.7853)" width="100%" height="100%" opacity=".99" xlink:href="#g10703"/>
  <use transform="translate(-1.5888 -6.9584)" width="100%" height="100%" opacity=".99" xlink:href="#g10703"/>
  <use transform="translate(-.36034 -4.5015)" width="100%" height="100%" opacity=".99" xlink:href="#g10703"/>
  <use transform="translate(2.38 -6.0134)" width="100%" height="100%" opacity=".99" xlink:href="#g10703"/>
  <use transform="translate(2.947 -2.8951)" width="100%" height="100%" opacity=".99" xlink:href="#g10703"/>
  <use transform="translate(16.176 -3.0841)" width="100%" height="100%" opacity=".99" xlink:href="#g10703"/>
  <use transform="translate(18.444 -27.842)" width="100%" height="100%" opacity=".99" xlink:href="#g10703"/>
  <use transform="translate(20.995 -27.18)" width="100%" height="100%" opacity=".99" xlink:href="#g10703"/>
  <use transform="translate(23.83 -25.857)" width="100%" height="100%" opacity=".99" xlink:href="#g10703"/>
  <use transform="translate(19.2 -24.251)" width="100%" height="100%" opacity=".99" xlink:href="#g10703"/>
  <use transform="translate(22.318 -28.125)" width="100%" height="100%" opacity=".99" xlink:href="#g10703"/>
  <use transform="translate(14.097 -5.352)" width="100%" height="100%" opacity=".99" xlink:href="#g10703"/>
  <g transform="translate(115.89 -37.942)" fill="none" opacity=".99" stroke="#000" stroke-width=".1">
   <path d="m45.626 231.15-0.0026-0.56185-0.40741-0.32801-0.37716-0.0508"/>
   <path d="m45.2 229.72 0.01578 0.53561"/>
   <path d="m45.624 230.58 0.26929-0.97427"/>
   <path d="m45.775 230.04 0.67077 0.0577"/>
  </g>
  <g transform="translate(116.52 -40.181)" fill="none" opacity=".99" stroke="#000" stroke-width=".1">
   <path d="m45.626 231.15-0.0026-0.56185-0.40741-0.32801-0.37716-0.0508"/>
   <path d="m45.2 229.72 0.01578 0.53561"/>
   <path d="m45.624 230.58 0.26929-0.97427"/>
   <path d="m45.775 230.04 0.67077 0.0577"/>
  </g>
  <g stroke-width="1.4325">
   <use transform="matrix(.64465 0 0 .75594 91.418 46.488)" width="100%" height="100%" opacity=".99" xlink:href="#symbol7403"/>
   <use transform="matrix(.64465 0 0 .75594 112.96 40.189)" width="100%" height="100%" opacity=".99" xlink:href="#symbol7403"/>
   <use transform="matrix(.64465 0 0 .75594 84.817 41.432)" width="100%" height="100%" opacity=".99" xlink:href="#symbol7403"/>
  </g>
  <use transform="translate(100.01 -86.375)" width="100%" height="100%" opacity=".99" xlink:href="#g2392"/>
  <use transform="translate(119.26 -89.378)" width="100%" height="100%" opacity=".99" xlink:href="#g2392"/>
  <use transform="translate(120.78 -77.273)" width="100%" height="100%" opacity=".99" xlink:href="#g2392"/>
  <use transform="matrix(.64465 0 0 .75594 74.522 27.162)" width="100%" height="100%" opacity=".99" stroke-width="1.4325" xlink:href="#symbol7403"/>
  <use transform="matrix(.64465 0 0 .75594 76.143 42.926)" width="100%" height="100%" opacity=".99" stroke-width="1.4325" xlink:href="#symbol7403"/>
  <g stroke-width="1.3986">
   <use transform="matrix(.70895 0 0 .72113 59.193 20.336)" width="100%" height="100%" opacity=".99" xlink:href="#symbol4303"/>
   <use transform="matrix(.70895 0 0 .72113 56.856 18.863)" width="100%" height="100%" opacity=".99" xlink:href="#symbol4303"/>
   <use transform="matrix(.70895 0 0 .72113 60.965 18.33)" width="100%" height="100%" opacity=".99" xlink:href="#symbol4303"/>
   <use transform="matrix(.70895 0 0 .72113 51.811 14.989)" width="100%" height="100%" opacity=".99" xlink:href="#symbol4303"/>
   <use transform="matrix(.70895 0 0 .72113 48.27 14.388)" width="100%" height="100%" opacity=".99" xlink:href="#symbol4303"/>
  </g>
  <use transform="matrix(1.1266 0 0 .82502 -2.1296 -19.184)" width="100%" height="100%" opacity=".99" stroke-width="1.0373" xlink:href="#g7709"/>
  <use transform="matrix(1.0752 0 0 .80733 6.4534 -27.004)" width="100%" height="100%" opacity=".99" stroke-width="1.0733" xlink:href="#g7709"/>
  <use transform="matrix(.64465 0 0 .75594 70.699 25.489)" width="100%" height="100%" opacity=".99" stroke-width="1.4325" xlink:href="#symbol7403"/>
 </g>
</svg>
