<?xml version="1.0" encoding="UTF-8"?>
<svg width="281.84mm" height="295.95mm" version="1.1" viewBox="0 0 281.84 295.95" xmlns="http://www.w3.org/2000/svg" xmlns:cc="http://creativecommons.org/ns#" xmlns:dc="http://purl.org/dc/elements/1.1/" xmlns:rdf="http://www.w3.org/1999/02/22-rdf-syntax-ns#">
 <metadata>
  <rdf:RDF>
   <cc:Work rdf:about="">
    <dc:format>image/svg+xml</dc:format>
    <dc:type rdf:resource="http://purl.org/dc/dcmitype/StillImage"/>
    <dc:title/>
   </cc:Work>
  </rdf:RDF>
 </metadata>
 <g fill="none" stroke-width=".15">
  <g stroke="#3f5ec6">
   <path d="m16.416 249.32s-2.3285-0.70036-2.2824 0.71388c0.05845 1.7906-0.72331 2.6744-0.72331 2.6744-0.83706 1.1242-2.0861 1.0838-3.4281 1.2674"/>
   <path d="m18.295 248.17s-3.3032-1.1015-4.1071 1.4866" stroke-linejoin="round"/>
   <path d="m12.522 242.2s-0.49001 1.8893-3.0247 1.744" stroke-linejoin="round"/>
  </g>
  <g stroke="#3e4c7b" stroke-linejoin="round">
   <path d="m174.29 65.351s-1.2564 2.1433-4.6896 1.764"/>
   <path d="m176.54 65.734s-2.0282 0.76705-1.793 3.0886c0.23517 2.3215-1.068 2.6727-1.068 2.6727"/>
   <path d="m177.52 66.04s-0.018 1.0997-2.5966 1.3571"/>
   <path d="m173.52 67.471s0.70655-0.31762 1.2125 1.2799"/>
   <path d="m184.42 61.896s0.24286 2.176-3.0513 2.4912"/>
   <path d="m227.04 87.501s0.80828 2.0049-2.3776 0.59968c-3.1859-1.4052-1.8457 0.38627-2.0789 1.4954-0.14856 0.68548-3.0874 1.6886-3.0874 1.6886"/>
   <path d="m226.23 89.373s-0.1603 2.0056-2.6216 2.5058c-2.0843 0.37691-1.8384-0.9961-2.8606-1.0844"/>
   <path d="m233.02 111.51s0.0523 0.72276-1.0675 0.9385"/>
   <path d="m232.8 117.47c0.12797-0.0195 2.2981-0.85901 2.4054-3.2133 0 0 0.14821-4.1246 3.2038-3.4151"/>
   <path d="m234.1 120.33c1.6581-2.8153 0.14011-3.0006 0.69672-4.5537"/>
  </g>
  <g stroke="#3f5ec6" stroke-linejoin="round">
   <g>
    <path d="m37.01 267.19s0.31705 3.5323-6.3474 3.8779"/>
    <path d="m36.715 273.75s-0.51262-1.4643-3.389-3.0378"/>
    <path d="m59.644 226.15s-4.7347 4.1269-12.683 5.0052c-6.2377 0.5388-0.97035 9.7794-2.9737 10.627 0 0-2.5656 1.2512-2.3056 4.2169"/>
    <path d="m35.137 238.16s5.901-3.3079 9.1772 0.70819"/>
    <path d="m39.231 233.06s-1.4287 2.8244 1.1778 3.8384"/>
    <path d="m48.511 241.09s-1.8794 0.6924-4.6127 0.72826"/>
    <path d="m35.878 250.3s2.3759-0.82645 3.4223-3.0501c0 0 1.8416-4.6515 2.5939-3.0389"/>
    <path d="m12.935 250.45s1.2915 0.0191 0.89384 1.5051"/>
    <path d="m44.151 222.49s0.57585 3.4134 6.2689 2.6947c1.7609-0.20881 2.1685 2.8455-2.0373 5.7859"/>
    <path d="m48.911 219.1s-4.9328 2.9248-2.6905 5.683"/>
    <path d="m61.603 217.37s-10.766 1.8573-6.7381 4.006c0 0 5.3612 3.0665 1.2783 7.0398"/>
    <path d="m77.786 200.36s-5.8741-4.2407-4.4796-8.2619c0 0 2.3697-3.4386-3.4595-9.3833"/>
    <path d="m83.26 193.78s-10.246 3.0616-9.7702-2.3403"/>
    <path d="m63.272 181.06s-11.888-0.54322-10.929-2.8638c1.0814-2.4986 4.9206-4.0672 4.2301-5.2631-0.83413-1.0834-5.0065-1.0243-5.0065-1.0243"/>
    <path d="m63.486 173.64c0.16774-5.1095-6.5021 0.88695-6.8026-0.38403"/>
    <path d="m76.163 168.24s-1.0689 7.387-4.6275 7.5346c-1.6128 0.0637-0.58517-3.1308-8.3189-3.6342"/>
    <path d="m93.841 212.81s-14.266-2.8546-16.365-0.41924c-1.7173 2.1332 4.3291 7.0016 1.079 8.697-3.1293 0.82377-2.9563-2.5775-5.5737 1.2139"/>
    <path d="m90.881 214.92s1.7745 1.3125-11.436 5.179"/>
    <path d="m99.898 231.67s-5.1033-4.747-5.0461-9.2022c-0.1139-2.5598-10.149 0.79032-10.155 0.79776 0 0-4.1186 1.5919-7.8336-2.0718"/>
    <path d="m100.24 220.52s-1.4014 3.5604-5.5367 1.5742"/>
    <path d="m101.68 235.76c-0.15152-3e-3 -1.9106-0.79133-2.8594-5.2069"/>
    <path d="m73.567 246.47s-0.5366-3.9176 3.9196-3.2999"/>
    <path d="m70.592 246.39c0.19942-0.0268 1.408 0.77346 3.1926-1.6436"/>
    <path d="m69.411 260.38s-2.5213 2.9256 0.45373 5.7924"/>
    <path d="m66.565 264.45c0.06967 0 1.3597-1.1414 2.5695 0.83227"/>
    <path d="m112.37 179.23s3.5066 1.0744 4.6176 3.9204c1.2888 3.3131-0.98123 5.5271 0.92134 6.6523 5.3455 3.3244 8.1389 0.50332 11.196 3.0068 0.95613 0.92039-1.1559 1.339-0.14704 2.742"/>
    <path d="m104.26 197.96c0.8242 0.16821 13.304-1.2946 16.075 1.4956 1.88 2.3527-1.9608 3.886-2.5627 6.2716 0 0-0.3974 2.9386 5.557 2.6622"/>
    <path d="m105.17 212.54s5.0666-10.335 12.901-5.7372"/>
    <path d="m112.71 211.72c-0.0264-0.21885-3.9905-4.1874-0.15221-5.9272"/>
    <path d="m107.86 188.26s5.5849 0.80532 6.7741 2.2864c0.62344 0.79169-2.7847 2.7806 7.5544 0.90237"/>
    <path d="m95.284 186.73c0.3332 0.19224 6.9939 6.4195 17.344 2.6686"/>
    <path d="m101.09 183.81s-2.2618 4.6775 1.1171 6.3484"/>
    <path d="m94.032 164.21s4.8593 0.36785 8.5942 3.3435c2.1946 2.1557 1.0951 7.9608 6.2858 4.1301"/>
    <path d="m89.62 169.15s1.5105-1.1658 3.3384-0.57131c2.376 0.78322 3.4807 5.6715 4.8085 1.6636 0 0 0.51331-2.9884 5.8766-1.3575"/>
    <path d="m123.59 147.6s5.2739 7.9305 1.1607 13.168"/>
    <path d="m132.45 144.46c0.48111 2.943-4.7263 3.4819-3.8582 7.1689 0 0 1.5254 2.235-2.3408 5.3222"/>
    <path d="m111.49 150.53s-3.5596 7.0981-0.31353 8.4415c2.9339 1.0052 4.868-1.9223 5.3172 0.61097"/>
    <path d="m101.3 158.38c0.38874-0.49422 5.8517-3.1508 9.2238 0.12765"/>
    <path d="m127.93 174.23s-3.395-2.5968-6.3539-1.331c0 0-3.9397 1.6387-6.5787 0.60476"/>
    <path d="m128.35 181.53s-9.5687-2.9717-10.955 3.6238"/>
    <path d="m158.78 230.29s-7.1128-0.17843-7.5136 2.0769c-0.38677 1.928 1.953 6.5314 0.39379 5.6567 0 0-2.5876-1.6905-3.7804 0.84131"/>
    <path d="m155.09 234.73c-0.13658-2e-3 -5.1233-1.9022-0.0106-4.2253"/>
    <path d="m153.77 238.78s1.877-0.57096-0.52672-5.1147"/>
    <path d="m147.86 231.2c0.32993 6e-3 1.0501 1.3388 4.2963 0.12003"/>
    <path d="m152.25 239.54s0.19982-1.0316-0.12661-2.3464"/>
    <path d="m151.82 225.55s-1.6226 4.5878 5.5253 4.7544"/>
    <path d="m153.29 203.84s2.2063-0.0871 2.9668 0.47578c0.35555 0.26955-0.48546 1.219 0.11187 1.4928 0.51047 0.27775 1.7537-0.73416 1.7584 0.23971"/>
    <path d="m156.68 210.81c-0.2856 1.8575-2.1012 0.41088-2.237 2.523-0.0286 0.939 1.2766 1.43 0.53484 1.996"/>
   </g>
   <path d="m134.43 111.18s-0.76814 5.4906 2.861 8.1193c3.6291 2.6287 1.6411 4.9044 1.6411 4.9044-1.0827 1.1263-1.1811-3.3796-3.2383-2.3036 0 0-1.6593 1.0555-3.8104 0.15743-0.75062-0.29337 0.5585-1.3897-0.79248-1.6801-1.3579-0.16003-0.13832 1.4438-3.87 3.4178-1.5222 0.62473-1.8225-1.2524-2.8322-0.5243-1.3182 0.92591-0.48086 4.2087-1.765 3.8667-0.98304-0.37577-1.633-1.7953-1.633-1.7953-0.12592-0.63955-1.2114 0.83451-1.2114 0.83451-0.62026 0.94712-0.44567-1.1008-1.566-1.217-1.6957 0.51564-1.8141-0.33445-2.6917-0.16563"/>
   <path d="m130.51 129.55c-1.8208-1.7057-5.5116 0.04-5.5116 0.04-2.6626 1.0329 0.84182-4.554-1.8384-2.6068"/>
   <path d="m89.033 131c2.6328 0.44055 4.4472-5.1716 13.441-4.106 5.8275 0.32179 5.7307-8.8777 8.6103-7.9264 1.7167 0.83241-1.4475 5.305-0.51215 6.5707 1.0056 1.5538 2.802-1.7582 3.4784-0.29063"/>
   <path d="m190.72 136.64s-14.66 4.1133-15.494 0.35252c-2.6782-7.2182-4.5176-4.376-4.5176-4.376-3.2892 5.9248-3.8361 3.2149-3.8361 3.2149-0.69713-3.3944-4.6278-4.5153-4.6278-4.5153s-4.4522-1.533-6.6265 2.1158c0 0-1.0602 2.0508-3.3716 0.34361-1.4684-1.4573-0.70973-5.0435-3.7896-5.3507-1.7131-0.1513-1.949 3.6959-3.2226 3.0146-0.91894-0.6243 2.4358-4.4084 0.96355-4.621-2.3387-0.34062-1.7512 5.2826-4.1115 4.9853-1.8876-0.25645-2.7272-5.8489-3.513-3.3671-0.40041 1.459 1.9445 5.0972 0.59271 5.1112-1.0828 0.017-3.0526-6.0942-2.241-6.7448 2.414-1.1756 1.4828-2.4746 1.4828-2.4746"/>
   <path d="m139.35 228.6s-1.6982-4.2432-0.87824-5.8498c0 0 0.8444-1.5399 3.0948-2.2424 0 0 1.3551-1.2346-3.3638-0.12503 0 0-1.226 0.48709-1.2323-2.0295"/>
   <path d="m136.41 223.31s0.34373-1.048 3.2816-1.8704"/>
   <path d="m150.22 199.77c-4.3914 4.5493-5.7963 3.4524-5.7963 3.4524-4.5234-2.4037-4.5763-0.57717-4.5763-0.57717-0.48148 2.1596-2.8374 2.4833-2.8374 2.4833"/>
   <path d="m161.35 199.32c11.721 9.0798 5.0472 7.8622 5.0472 7.8622-4.9438-1.3888-3.8656 0.57612-3.8656 0.57612 2.6898 4.6268-0.0949 3.1005-0.0949 3.1005-1.9691-1.2496-6.111 0.80403-6.111 0.80403"/>
   <path d="m163.48 195.21c5.485 3.0594 2.5457 2.7346 2.5457 2.7346-1.761-0.0627-2.0936 1.015-2.0936 1.015-0.3201 1.4758 2.3692 4.6078 2.3692 4.6078"/>
   <path d="m154.48 189.79c-1.6959 2.7304-9.0061 2.5516-9.0061 2.5516-3.2294-0.17085-2.0972 4.4404-2.0972 4.4404 0.49201 1.6118 0.3462 3.9117 0.3462 3.9117-0.13121 1.8957-2.3426 1.3298-2.3426 1.3298"/>
   <path d="m145.08 180.63c-2.514 0.0783-3.1332 4.0568-3.1332 4.0568-0.31386 4.2222 2.0912 4.0245 2.0912 4.0245 5.4969-0.55307 4.7342 1.1236 4.7342 1.1236 0.13511 1.7286-3.0296 2.497-3.0296 2.497"/>
   <path d="m155.04 182.72c-4.2339-4.8849-4.5321-2.5973-4.5321-2.5973-0.32964 3.705-1.8664 2.8876-1.8664 2.8876-3.9641-1.1511-6.4982 0.87303-6.4982 0.87303"/>
   <path d="m138.81 240.4c3.0549 4.0667 3.127 1.3412 3.127 1.3412 0.77252-9.3249 2.4675-6.7451 2.4675-6.7451 2.4336 2.815 1.996 0.52037 1.996 0.52037-0.46432-2.2826 3.853-3.7055 3.853-3.7055"/>
   <path d="m149.12 157.52c-13.416-5.362-11.218-1.9059-11.218-1.9059 2.5585 10.172-0.30479 7.5896-0.30479 7.5896-5.7486-4.6664-5.8129-1.8225-5.8129-1.8225 0.17953 3.0779-1.962 3.5224-1.962 3.5224-1.0068 0.13648-2.7222-1.4342-2.7222-1.4342"/>
   <path d="m37.291 211s1.0884 3.662 4.1422 3.4091c0 0 3.7908 0.24921 2.7363-9.2877 0 0-0.96358-5.8279 5.5567 6.0348 0 0 1.1197 2.3263 1.9014-1.6662"/>
   <path d="m44.129 204.68s-2.4486-5.131-0.99903-8.7389c0 0 1.3702-3.3954 4.4912 4.2926 0 0 1.3328 2.8948 6.1853-3.2277 0 0 2.4191-3.455 5.9388 4.9846"/>
   <path d="m54.013 184.75c-5.7641 5.4044-1.5267 5.073-1.5267 5.073 8.3268 0.18133 3.9106 1.5911 3.9106 1.5911-2.6831 0.75413-3.5085 6.7143-3.5085 6.7143"/>
   <path d="m25.819 166.58c-1.7911-4.1175-0.36634-4.4867-0.36634-4.4867 1.5556-0.89505 3.5739 0.41777 3.5739 0.41777"/>
   <path d="m19.904 162.95s3.943 5.079 5.034-0.0256"/>
   <path d="m72.466 157.18c-4.0384-7.2797-4.8503-1.2043-4.8503-1.2043-1.6443 9.3739-2.9634 4.4269-2.9634 4.4269-3.0303-11.152-3.5669-3.3173-3.5669-3.3173-0.93509 6.9454-3.579 6.3561-3.579 6.3561-4.9538-0.0915-5.6138-6.7037-5.6138-6.7037"/>
   <path d="m68.119 164.3s-5.0248-0.5149-5.5956-2.8308c-0.20617-3.3701-2.743 0.28795-2.743 0.28795"/>
   <path d="m83.415 165.49c-7.115-14.63-2.8035-12.206-2.8035-12.206 8.4934 5.2718 5.3762 1.3457 5.3762 1.3457-3.9031-5.6119-2.4833-8.7476-2.4833-8.7476"/>
   <path d="m76.96 160.97c0.18247 0.06 3.6616 1.9011 2.8899-3.9457"/>
   <path d="m101.74 131.08s2.4057-2.5857-3.0525-4.2108"/>
   <path d="m99.503 116.78c-5.2428 3.0286-1.5092 4.8059-1.5092 4.8059s7.7552 3.489 2.6214 5.1706"/>
   <path d="m76.51 117.77s-3.36 1.6577-1.7108-0.77848"/>
   <path d="m83.54 115.34c6.0549-2.2196 5.8502-5.5875 5.8502-5.5875s0.52157-4.3342-3.1706-6.3819"/>
   <path d="m93.756 115.81c7.3274-8.8651 0.88903-3.7431 0.88903-3.7431-4.827 3.8546-3.4631 0.47406-3.4631 0.47406 2.6119-9.6057 0.47569-6.401 0.47569-6.401-1.3028 2.6684-2.9537-0.17439-2.9537-0.17439"/>
   <path d="m62.628 54.478c9.871-0.63373 5.6002-1.8271 5.6002-1.8271s-2.5311-0.84954-1.2411-3.8419"/>
   <path d="m60.252 44.594c4.705 5.2228 0.04834 5.5208 0.04834 5.5208-8.2855 1.0019-4.2059 1.7697-4.2059 1.7697 3.306 0.92289 2.5835 1.8319 2.5835 1.8319"/>
   <path d="m65.512 44.661c-2.9074-0.37333-2.38 0.57423-2.38 0.57423 0.52503 1.5973-0.82314 3.5108-0.82314 3.5108"/>
   <path d="m46.19 57.535c1.6612-5.6402 2.2802-2.188 2.2802-2.188 1.2941 6.0808 2.0151 3.1561 2.0151 3.1561 0.8752-3.989 2.6194-3.5606 2.6194-3.5606 1.0686 0.20295 1.9673 3.2623 1.9673 3.2623"/>
   <path d="m46.038 72.401c0.17774-8.7517 1.7173-5.2875 1.7173-5.2875 3.2732 5.7576 3.9096 1.3494 3.9096 1.3494 0.17077-1.5141 1.5269-2.5695 1.5269-2.5695"/>
   <path d="m59.068 71.484s-3.6363 2.3661-5.3457 1.0954c-2.5606-2.0242-1.1381-6.0834-1.1381-6.0834"/>
   <path d="m66.598 81.017c3.2771-11.847-1.4794-9.7424-1.4794-9.7424-8.5845 3.1006-10.92 1.5376-10.92 1.5376"/>
   <path d="m71.896 30.658c1.6821-5.3956 1.9972-3.0942 1.9972-3.0942 0.01998 2.9032 0.87143 2.4315 0.87143 2.4315 1.0553-0.3968 2.3318-2.2985 2.3318-2.2985"/>
   <path d="m73.772 50.425c-2.5442 9.8245-4.8611 7.9365-4.8611 7.9365-2.4103-1.6407-0.07301-4.7917-0.07301-4.7917"/>
   <path d="m76.187 57.724c-0.04464-2.9087-2.1991-2.1717-2.1991-2.1717-1.32 0.16622-3.3616 2.2674-3.3616 2.2674"/>
   <path d="m76.753 53.674c-2.9436-2.4992-3.6919-0.84406-3.6919-0.84406"/>
   <path d="m110.99 72.751c-0.47789-3.1114 4.8352-6.5119 4.8352-6.5119 4.6596-3.7498 3.5049-5.2926 3.5049-5.2926-2.0457-4.2461 0.567-6.2354 0.567-6.2354"/>
   <path d="m121.93 97.581c8.2991-12.23 8.6848-4.9365 8.6848-4.9365 0.1888 2.5927 2.4208 3.6116 2.4208 3.6116 3.2801 1.6401 9.7371 1.2049 9.7371 1.2049"/>
   <path d="m137.77 88.96c-5.4073-0.65071-2.5924 0.55362-2.5924 0.55362 1.8321 0.7453 0.60572 1.8421 0.60572 1.8421-3.8388 3.7952 1.5881 6.011 1.5881 6.011"/>
   <path d="m124.69 74.536c-9.5462-0.74328-5.6253-2.3099-5.6253-2.3099 6.3296-2.6254 3.2796-3.1223 3.2796-3.1223-5.0623-1.5627-3.4863-5.9862-3.4863-5.9862"/>
   <path d="m148.42 42.158c-0.53732 1.8514 0.76931 3.8741 0.76931 3.8741 1.4238 2.3603-3.5418 3.3339-3.5418 3.3339"/>
   <path d="m150.89 44.48c-6e-3 1.6408-1.5062 2.7904-1.5062 2.7904"/>
   <path d="m164.09 117.78s-0.1761 1.3474 3.1547 1.7943c0 0 3.0637 0.38944-1.0472 2.4979 0 0-3.8816 1.6197 3.3612 3.0213 1.5903 0.51071-1.4897 3.2198-0.30783 6.293 0 0 0.85406 2.8595-2.5166-0.88143-1.5622-1.595-1.6182 1.2922-4.4747 0.81828"/>
   <path d="m157.04 108.03c1.3458-6.0372-1.9223-3.6174-1.9223-3.6174-10.757 7.0591-7.3569 3.2434-7.3569 3.2434 2.9506-3.4744 0.73182-5.2299 0.73182-5.2299"/>
   <path d="m152.55 112.2s4.4057-5.1144-1.1764-5.4616"/>
   <path d="m163.95 101.53c1.0204 4.1243 4.2472 3.5057 4.2472 3.5057s3.8382 0.21137-0.76751 2.7264"/>
   <path d="m172.41 112.34s6.3174 5.9964 2.5466 6.035c-3.3375-0.0923-5.7208 2.8607-5.7208 2.8607-1.1962 1.6316 0.79371 4.283 0.79371 4.283"/>
   <path d="m162.26 164.43c12.196-7.9302 10.462-3.8682 10.462-3.8682-3.9415 9.6038 1.5978 6.9212 1.5978 6.9212s3.0914-1.5787 4.4377 0.99537"/>
   <path d="m166.58 174.85c3.0437 11.528 3.1947 5.7199 3.1947 5.7199-0.0431-3.3979 2.3209-2.8136 2.3209-2.8136 2.1777 0.37497 3.025-1.2897 3.025-1.2897"/>
   <path d="m164.74 194.04s-0.63806 0.92087 0.98533 2.5127"/>
   <path d="m154.62 196.34c1.2063-1.1949 1.3331-0.1296 1.3331-0.1296s0.15799 1.0397 0.84293 1.0744"/>
   <path d="m155.91 173.15c5.6874-2.1136 6.1945 1.0599 6.1945 1.0599 1.5546 6.26 2.2686 4.6082 2.2686 4.6082 0.80795-1.4208 2.0338-0.87274 2.0338-0.87274 0.78992 0.33674 2.1258 3.1196 2.1258 3.1196"/>
   <path d="m179.37 177.4c-2.6982 11.258 2.9114 8.2351 2.9114 8.2351 12.329-6.6423 8.2943-2.5012 8.2943-2.5012-4.7491 4.7585-1.407 4.298-1.407 4.298 5.6512-0.82506 6.1066 2.6113 6.1066 2.6113 1.0987 5.2973 1.9134 3.8182 1.9134 3.8182 1.3288-2.897 3.9674-2.7165 3.9674-2.7165"/>
   <path d="m180.49 198.15c-4.0598 6.7875-4.9736 5.0728-4.9736 5.0728-4.7095-4.7216-3.6601-1.7143-3.6601-1.7143 0.6219 1.1196 0.42952 2.0721 0.42952 2.0721"/>
   <path d="m185.72 193.39c1.9676-4.8852 5.2923-4.714 5.2923-4.714s3.3871-0.16352 4.7112 3.1696"/>
   <path d="m199.81 183.63c1.4766-4.825 2.0951-2.5015 2.0951-2.5015 1.0066 3.5568 1.5257 1.566 1.5257 1.566 0.89143-2.5054 2.451-1.7261 2.451-1.7261"/>
   <path d="m189.91 199.6c7.1682 12.569 7.8281 8.1901 7.8281 8.1901 2.5501-9.534 3.3802-3.7222 3.3802-3.7222 1.0506 6.0277 3.1386 4.1902 3.1386 4.1902s2.0578-1.6662 3.1917 0.33236"/>
   <path d="m184.13 204.67c4.0848 5.2403 5.5866 2.8627 5.5866 2.8627s1.9447-3.0009 5.0402-0.62875"/>
   <path d="m179.55 207.88c7.0782 5.0844 5.61 1.5896 5.61 1.5896s-0.93236-1.1838 3.5024-1.3953"/>
   <path d="m203.15 203.62s-2.056 0.46041-1.2479 3.2882"/>
   <path d="m225.87 215.47s2.4796 0.58223 2.7033 3.2075c0 0 0.22093 2.6994 3.672 0.64002 0 0 4.2484-3.2563 4.4743 6.3823"/>
   <path d="m233.3 222.64s2.6894-3.5491-2.1586-2.7802"/>
   <path d="m220.03 204.6s-1.2611 1.5074-3.4174 2.1183"/>
   <path d="m220.02 208.36s-0.94524-2.1357-2.7468-1.849"/>
   <path d="m212.13 163.82s-2.3735-1.3456-3.5897 1.846c0 0-0.98806 4.0228-3.3041-4.6207 0 0-1.502-5.6312-6.19 10.111"/>
   <path d="m188.12 163.37c9.0789-4.3006 7.4316 0.33163 7.4316 0.33163-0.80109 3.5641 1.1191 3.6155 1.1191 3.6155 2.8681 0.45667 5.9417-5.6047 5.9417-5.6047"/>
   <path d="m202.93 174.64c-4.0664 0.87537-2.8595-0.54662-2.8595-0.54662 2.3721-2.0404 2.5744-4.3345 2.5744-4.3345 0.15649-1.6294-2.7212-0.84148-2.0969-3.1814"/>
   <path d="m187.25 147.71c-3.3796-2.0848-10.477 3.6676-11.355 0.42798-0.31915-3.9616 6.7233-7.5913 5.3355-8.645-1.2293-0.5404-2.9244 0.69879-5.3624-1.5966"/>
   <path d="m194.76 145.73c-2.2102-0.78476-1.6258 1.1969-1.6258 1.1969 0.15233 1.1003-1.8402 0.77034-1.8402 0.77034"/>
   <path d="m201.85 142.25c-5.5808 0.73947-4.0842 1.9104-4.0842 1.9104 1.7792 2.3626 0.17973 1.5695 0.17973 1.5695s-0.89515-0.51685-1.7252 0.42265"/>
   <path d="m196.25 152.83s-0.51069-3.9105-2.579-3.9292"/>
   <path d="m199.79 136.27s-0.47946-1.688-2.0829-1.186"/>
   <path d="m237.49 92.03s0.32743 1.3699 9.7578-1.7609c0 0 2.9253-1.0025 0.53419 3.5761 0 0-1.2585 1.5978 5.101-0.08257"/>
   <path d="m258.43 85.574c-4.947-1.5685-4.4915 0.9422-4.4915 0.9422 0.71029 4.0828-2.2422 4.9121-2.2422 4.9121-2.0622 0.8613-3.1669-0.97307-3.1669-0.97307"/>
   <path d="m248.4 102.8c-3.2262-2.2578-0.3262-2.2786-0.3262-2.2786 5.1685-0.19278 4.6144-2.2972 4.6144-2.2972-0.18775-3.1297-4.3898-3.715-4.3898-3.715"/>
   <path d="m256.94 87.42s-2.3156-2.1283-2.8774 0.1942"/>
   <path d="m192.24 96.657s0.80763 5.0968 7.8439 4.8784c0 0 5.649-0.14576-2.5053 4.0423 0 0-3.0254 1.6794 5.5167 6.7927 0 0 4.4176 2.6956-7.8953 5.1726 0 0-5.4438 0.72381-5.6539 4.5619 0 0-0.67569 3.3386 13.469 5.1746"/>
   <path d="m164.95 86.707c8.4454 11.885 7.0996 6.4237 7.0996 6.4237s-1.1462-2.9582 2.4265-3.93"/>
   <path d="m168.24 95.027s0.73876-1.7364 2.8288-0.96456"/>
   <path d="m211.32 111.24c-7.2383-11.886-6.6422-5.4766-6.6422-5.4766 0.40781 3.9483-1.8096 2.7777-1.8096 2.7777s-3.9435-2.047-1.6206-5.1817"/>
   <path d="m182.39 128.5c14.55 3.6872 13.301-0.0183 13.301-0.0183s-0.22574-1.5908-2.583-3.4061"/>
   <path d="m183.89 130.93s-2.0245-1.9353 1.3342-1.7102"/>
   <path d="m207.78 134.4c-0.0664-9.688-1.6855-6.1891-1.6855-6.1891-2.1334 5.3995-3.1244 2.1362-3.1244 2.1362s-0.44994-2.2744-5.2774-3.9652"/>
   <path d="m197.81 130.26s-1.5956-0.76296-2.6672-3.0553"/>
   <path d="m206.4 147.66c5.0433 8.1278 9.8741 8.3548 9.8741 8.3548"/>
   <path d="m202.44 151.19c3.2387-2.3846 6.1488-0.44548 6.1488-0.44548"/>
   <path d="m204.82 138c-1.9266 2.9856-0.69596 3.2791-0.69596 3.2791 4.5817 1.1283 2.7546 2.6036 2.7546 2.6036-2.5183 2.0168-0.46635 1.9494-0.46635 1.9494 8.5196 0.19953 4.0853 1.146 4.0853 1.146-2.2031 0.38699-0.8417 4.9627-0.8417 4.9627"/>
  </g>
 </g>
</svg>
