<?xml version="1.0" encoding="UTF-8"?>
<svg width="281.84mm" height="295.95mm" version="1.1" viewBox="0 0 281.84 295.95" xmlns="http://www.w3.org/2000/svg" xmlns:cc="http://creativecommons.org/ns#" xmlns:dc="http://purl.org/dc/elements/1.1/" xmlns:rdf="http://www.w3.org/1999/02/22-rdf-syntax-ns#">
 <metadata>
  <rdf:RDF>
   <cc:Work rdf:about="">
    <dc:format>image/svg+xml</dc:format>
    <dc:type rdf:resource="http://purl.org/dc/dcmitype/StillImage"/>
    <dc:title/>
   </cc:Work>
  </rdf:RDF>
 </metadata>
 <g fill="none">
  <g stroke="#3f5ec6" stroke-width=".25">
   <path d="m16.416 249.32s-2.3285-0.70036-2.2824 0.71388c0.05845 1.7906-0.72331 2.6744-0.72331 2.6744-0.83706 1.1242-2.0861 1.0838-3.4281 1.2674"/>
   <path d="m18.295 248.17s-3.3032-1.1015-4.1071 1.4866" stroke-linejoin="round"/>
   <path d="m12.522 242.2s-0.49001 1.8893-3.0247 1.744" stroke-linejoin="round"/>
  </g>
  <g stroke="#3e4c7b" stroke-linejoin="round">
   <g stroke-width=".15">
    <path d="m174.29 65.351s-1.2564 2.1433-4.6896 1.764"/>
    <path d="m176.54 65.734s-2.0282 0.76705-1.793 3.0886c0.23517 2.3215-1.068 2.6727-1.068 2.6727"/>
    <path d="m177.52 66.04s-0.018 1.0997-2.5966 1.3571"/>
    <path d="m173.52 67.471s0.70655-0.31762 1.2125 1.2799"/>
    <path d="m184.42 61.896s0.24286 2.176-3.0513 2.4912"/>
    <path d="m227.04 87.501s0.80828 2.0049-2.3776 0.59968c-3.1859-1.4052-1.8457 0.38627-2.0789 1.4954-0.14856 0.68548-3.0874 1.6886-3.0874 1.6886"/>
    <path d="m226.23 89.373s-0.1603 2.0056-2.6216 2.5058c-2.0843 0.37691-1.8384-0.9961-2.8606-1.0844"/>
   </g>
   <path d="m233.02 111.51s0.0523 0.72276-1.0675 0.9385" stroke-width=".25"/>
   <path d="m232.8 117.47c0.12797-0.0195 2.2981-0.85901 2.4054-3.2133 0 0 0.14821-4.1246 3.2038-3.4151" stroke-width=".15"/>
   <path d="m234.1 120.33c1.6581-2.8153 0.14011-3.0006 0.69672-4.5537" stroke-width=".15"/>
  </g>
  <g stroke="#3f5ec6" stroke-linejoin="round" stroke-width=".25">
   <path d="m37.01 267.19s0.31705 3.5323-6.3474 3.8779"/>
   <path d="m36.715 273.75s-0.51262-1.4643-3.389-3.0378"/>
   <path d="m59.644 226.15s-4.7347 4.1269-12.683 5.0052c-6.2377 0.5388-0.97035 9.7794-2.9737 10.627 0 0-2.5656 1.2512-2.3056 4.2169"/>
   <path d="m35.137 238.16s5.901-3.3079 9.1772 0.70819"/>
   <path d="m39.231 233.06s-1.4287 2.8244 1.1778 3.8384"/>
   <path d="m48.511 241.09s-1.6531 1.1009-4.2188 0.5743"/>
   <path d="m35.878 250.3s2.3759-0.82645 3.4223-3.0501c0 0 1.8416-4.6515 2.5939-3.0389"/>
   <path d="m12.935 250.45s1.2915 0.0191 0.89384 1.5051"/>
   <path d="m44.151 222.49s0.57585 3.4134 6.2689 2.6947c1.7609-0.20881 2.1685 2.8455-2.0373 5.7859"/>
   <path d="m48.911 219.1s-4.9748 2.8799-2.7325 5.6381"/>
   <path d="m49.068 209.15s1.2743 6.0941 4.4022 8.4479c0 0 8.7258 5.5404 2.6727 10.815"/>
   <path d="m77.786 200.36s-5.8741-4.2407-4.4796-8.2619c0 0 2.3697-3.4386-3.4595-9.3833"/>
   <path d="m83.26 193.78s-10.246 3.0616-9.7702-2.3403"/>
   <path d="m63.272 181.06s-11.888-0.54322-10.929-2.8638c1.0814-2.4986 4.9206-4.0672 4.2301-5.2631-0.83413-1.0834-5.0065-1.0243-5.0065-1.0243"/>
   <path d="m63.486 173.64c0.16774-5.1095-6.5021 0.88695-6.8026-0.38403"/>
   <path d="m76.163 168.24s-1.0689 7.387-4.6275 7.5346c-1.6128 0.0637-0.58517-3.1308-8.3189-3.6342"/>
   <path d="m53.434 187.78s-4.0934-6.1618-13.098 4.9257"/>
   <path d="m93.841 212.81s-14.266-2.8546-16.365-0.41924c-1.7173 2.1332 4.3291 7.0016 1.079 8.697-3.1293 0.82377-2.9563-2.5775-5.5737 1.2139"/>
   <path d="m90.881 214.92s1.7745 1.3125-11.436 5.179"/>
   <path d="m99.898 231.67s-5.1033-4.747-5.0461-9.2022c-0.1139-2.5598-10.149 0.79032-10.155 0.79776 0 0-4.1186 1.5919-7.8336-2.0718"/>
   <path d="m100.24 220.52s-1.4014 3.5604-5.5367 1.5742"/>
   <path d="m101.68 235.76c-0.15152-3e-3 -1.9106-0.79133-2.8594-5.2069"/>
   <path d="m73.567 246.47s-0.5366-3.9176 3.9196-3.2999"/>
   <path d="m70.592 246.39c0.19942-0.0268 1.408 0.77346 3.1926-1.6436"/>
   <path d="m69.411 260.38s-2.5213 2.9256 0.45373 5.7924"/>
   <path d="m66.565 264.45c0.06967 0 1.3597-1.1414 2.5695 0.83227"/>
   <path d="m112.37 179.23s3.5066 1.0744 4.6176 3.9204c1.2888 3.3131-0.98123 5.5271 0.92134 6.6523 5.3455 3.3244 8.1389 0.50332 11.196 3.0068 0.95613 0.92039-1.1559 1.339-0.14704 2.742"/>
   <path d="m104.26 197.96c0.8242 0.16821 13.304-1.2946 16.075 1.4956 1.88 2.3527-1.9608 3.886-2.5627 6.2716 0 0-0.3974 2.9386 5.557 2.6622"/>
   <path d="m105.17 212.54s5.0666-10.335 12.901-5.7372"/>
   <path d="m112.71 211.72c-0.0264-0.21885-3.9905-4.1874-0.15221-5.9272"/>
   <path d="m107.86 188.26s5.5849 0.80532 6.7741 2.2864c0.62344 0.79169-2.7847 2.7806 7.5544 0.90237"/>
   <path d="m95.284 186.73c0.3332 0.19224 6.9939 6.4195 17.344 2.6686"/>
   <path d="m101.09 183.81s-2.2618 4.6775 1.1171 6.3484"/>
   <path d="m94.032 164.21s4.8593 0.36785 8.5942 3.3435c2.1946 2.1557 1.0951 7.9608 6.2858 4.1301"/>
   <path d="m89.62 169.15s1.5105-1.1658 3.3384-0.57131c2.376 0.78322 3.4807 5.6715 4.8085 1.6636 0 0 0.51331-2.9884 5.8766-1.3575"/>
   <path d="m123.59 147.6s5.2739 7.9305 1.1607 13.168"/>
   <path d="m132.45 144.46c0.48111 2.943-4.7263 3.4819-3.8582 7.1689 0 0 1.5254 2.235-2.3408 5.3222"/>
   <path d="m111.49 150.53s-3.5596 7.0981-0.31353 8.4415c2.9339 1.0052 4.868-1.9223 5.3172 0.61097"/>
   <path d="m101.3 158.38c0.38874-0.49422 5.8517-3.1508 9.2238 0.12765"/>
   <path d="m127.93 174.23s-3.395-2.5968-6.3539-1.331c0 0-3.9397 1.6387-6.5787 0.60476"/>
   <path d="m128.35 181.53s-9.5687-2.9717-10.955 3.6238"/>
   <path d="m158.78 230.29s-7.1128-0.17843-7.5136 2.0769c-0.38677 1.928 1.953 6.5314 0.39379 5.6567 0 0-2.5876-1.6905-3.7804 0.84131"/>
   <path d="m155.09 234.73c-0.13658-2e-3 -5.1621-1.8894-0.0494-4.2125"/>
   <path d="m153.77 238.78s2.3258-0.25017-0.0779-4.7939"/>
   <path d="m147.86 231.2c0.32993 6e-3 0.955 1.3635 4.2012 0.14468"/>
   <path d="m152.25 239.54s0.29543-0.57196-0.031-1.8868"/>
   <path d="m151.82 225.55s-1.6527 4.6125 5.4953 4.7791"/>
   <path d="m153.29 203.84s2.2063-0.0871 2.9668 0.47578c0.35555 0.26955-0.48546 1.219 0.11187 1.4928 0.51047 0.27775 1.7537-0.73416 1.7584 0.23971"/>
   <path d="m156.68 210.81c-0.2856 1.8575-2.1012 0.41088-2.237 2.523-0.0286 0.939 1.2766 1.43 0.53484 1.996"/>
  </g>
 </g>
</svg>
