<?xml version="1.0" encoding="UTF-8"?>
<svg width="55.352mm" height="72.541mm" version="1.1" viewBox="0 0 55.352 72.541" xmlns="http://www.w3.org/2000/svg" xmlns:cc="http://creativecommons.org/ns#" xmlns:dc="http://purl.org/dc/elements/1.1/" xmlns:rdf="http://www.w3.org/1999/02/22-rdf-syntax-ns#">
 <metadata>
  <rdf:RDF>
   <cc:Work rdf:about="">
    <dc:format>image/svg+xml</dc:format>
    <dc:type rdf:resource="http://purl.org/dc/dcmitype/StillImage"/>
    <dc:title/>
   </cc:Work>
  </rdf:RDF>
 </metadata>
 <g transform="translate(-61.972 -89.891)">
  <g stroke="#000">
   <path d="m89.648 90.572-27.151 25.051 5.1345 46.31 21.954-2e-3h0.12568l21.954 2e-3 5.1345-46.31z" fill="#347568"/>
   <path d="m89.638 94.316-24.667 22.77 4.6648 42.094 19.945-2e-3h0.11419l19.945 2e-3 4.6648-42.094z" fill="#1c505b"/>
   <circle cx="89.556" cy="116.06" r="5.1859" fill="#5f9f93" stroke-linecap="round" stroke-width="2"/>
  </g>
  <path d="m79.787 143.18c2.4381 2.8793 6.0435 4.6435 9.96 4.6436 3.9165-2e-5 7.5214-1.7642 9.9596-4.6436" fill="none" stroke="#000" stroke-width="2"/>
  <path d="m101.8 139.03c0.56784-1.4879 0.85898-3.0671 0.85909-4.6597 9e-5 -7.2193-5.8523-13.072-13.072-13.072-7.2191 1.6e-4 -13.071 5.8525-13.071 13.072-3.8e-5 1.5926 0.29096 3.1717 0.85864 4.6597" fill="none" stroke="#000" stroke-width="2"/>
  <g>
   <path d="m85.656 105.01s-20.289 9.2613-10.021 50.551c-14.956-42.885 10.021-50.551 10.021-50.551"/>
   <path d="m93.548 104.86s20.289 9.2613 10.021 50.551c14.956-42.885-10.021-50.551-10.021-50.551"/>
   <path d="m74.403 118.17c2.3914 3.8182 28.133 3.7605 30.78 0l1.4083 5.0957c-3.5116-2.1201-30.459-2.1424-33.935 0z"/>
   <path d="m85.714 121.37h7.8168s-3.8331 9.7655-3.2481 34.476c-0.58401-24.692-4.5686-34.476-4.5686-34.476z"/>
  </g>
 </g>
</svg>
